<?xml version="1.0" encoding="utf-8"?>
<!-- Generator: Adobe Illustrator 15.1.0, SVG Export Plug-In  -->
<!DOCTYPE svg PUBLIC "-//W3C//DTD SVG 1.1//EN" "http://www.w3.org/Graphics/SVG/1.1/DTD/svg11.dtd" [
	<!ENTITY ns_flows "http://ns.adobe.com/Flows/1.0/">
]>
<svg version="1.1"
	 xmlns="http://www.w3.org/2000/svg" xmlns:xlink="http://www.w3.org/1999/xlink" xmlns:a="http://ns.adobe.com/AdobeSVGViewerExtensions/3.0/"
	 x="0px" y="0px" width="1000px" height="1000px" viewBox="-63.658 0 1000 1000"
	 overflow="visible" enable-background="new -63.658 0 1000 1000" xml:space="preserve">
<defs>
</defs>
<path fill="#FFFFFF" d="M752.587,54.373V23.754h13.669c3.404,0,5.917,0.268,7.463,0.829c1.561,0.557,2.794,1.538,3.716,2.939
	c0.937,1.416,1.397,3.028,1.397,4.838c0,2.308-0.714,4.195-2.134,5.693c-1.404,1.501-3.515,2.438-6.31,2.824
	c1.383,0.784,2.527,1.654,3.456,2.572c0.914,0.937,2.118,2.59,3.664,4.965l3.924,5.957h-7.744l-4.683-6.637
	c-1.65-2.382-2.795-3.879-3.39-4.504c-0.624-0.617-1.285-1.037-1.977-1.264c-0.685-0.23-1.755-0.349-3.255-0.349h-1.294v12.754
	H752.587z M759.091,36.747h4.771c3.137,0,5.039-0.123,5.827-0.372c0.773-0.246,1.383-0.688,1.828-1.305
	c0.446-0.613,0.655-1.39,0.655-2.319c0-1.044-0.298-1.88-0.877-2.512c-0.581-0.639-1.398-1.06-2.438-1.234
	c-0.521-0.052-2.096-0.067-4.712-0.067h-5.055V36.747z"/>
<path fill="#FFFFFF" d="M766.077,11.417c-15.251,0-27.634,12.397-27.634,27.641c0,15.245,12.383,27.657,27.634,27.657
	c15.267,0,27.649-12.413,27.649-27.657C793.727,23.814,781.344,11.417,766.077,11.417 M766.077,61.883
	c-12.591,0-22.817-10.261-22.817-22.826c0-12.586,10.227-22.81,22.817-22.81s22.833,10.224,22.833,22.81
	C788.91,51.623,778.668,61.883,766.077,61.883"/>
<path fill="#86743A" d="M66.276,447.933c0,0,14.118,20.696,15.411,28.601c1.278,7.923,4.508,11.045,4.508,11.045
	s11.583-16.85,15.434-21.402c3.857-4.538,12.825-15.679,15.801-18.273c2.951-2.605,10.372-5.002,10.372-5.002
	s0.792,6.578-0.624,15.802c-1.416,9.224-1.531,15.861-2.282,20.153c-0.68,3.791-2.557,14.3-3.333,17.689
	c-0.762,3.4-0.115,4.3-0.115,4.3s4.619-2.353,7.837-9.774c3.229-7.384,5.162-11.417,6.054-14.386
	c0.903-3.007,7.633-6.348,7.633-6.348s3.174,7.492,2.668,18.671c-0.524,11.164,0.505,22.216-2.319,31.447
	c-2.839,9.217-3.471,11.135-1.167,19.191c2.323,8.057,4.125,8.845,3.876,14.716c-0.26,5.843-0.26,14.465,0.13,15.044
	c1.962,2.929,0.792,0.327,10.124,5.85c0,0,0,22.462-0.61,34.8c-0.16,3.493,5.533,6.361,7.73,7.625
	c2.178,1.309,2.824,2.854,2.824,2.854s-0.138,11.832-0.138,16.901c0,5.055-0.126,10.644,1.807,16.872
	c1.925,6.244,13.769,21.719,18.904,25.851c5.144,4.177,9.652,11.03,17.511,15.713c7.864,4.668,35.004,10.896,42.076,14.672
	c7.076,3.775,16.72,11.543,23.654,20.759c6.964,9.217,11.866,16.627,13.654,17.407c1.813,0.773,38.75,30.014,38.75,30.014
	s-44.7,38.708-56.886,57.156c-8.744,13.237-20.696,31.076-50.965,12.947c-5.942-3.56-29.712-20.127-32.284-20.648
	c-2.579-0.489-16.979-8.948-23.921-9.959c-6.964-1.056-13.137-2.765-20.982-9.646c-7.856-6.898-13.137-10.124-18.931-11.172
	c-5.79-1.019-8.469-3.248-9.513-6.103c-1.019-2.868-2.832-2.46-8.484-2.988c-5.664-0.505-9.083-3.359-9.083-3.359
	s3.928-1.561,5.102-5.871c1.141-4.251-3.479-5.56-9.027-10.777c-5.526-5.188-14.285-15.312-19.819-21.034
	c-5.526-5.693-10.458-9.038-10.458-9.038s2.494-0.417,3.902-2.632c1.416-2.215,1.806-1.68-4.894-13.512
	c-6.697-11.811-20.009-32.027-30.563-51.07c-10.056-18.18-12.583-26.43-15.541-33.446c-2.961-7.017-5.251-21.153-5.251-21.153
	s8.225,3.435,12.472,6.69c4.255,3.24,9.157,4.83,9.157,4.83s0.274-9.722-2.564-22.55c-2.839-12.873-5.396-29.642-5.147-39.356
	c0.253-9.767,6.819-10.42,7.194-15.986c0.394-5.582-0.505-22.32-1.278-30.757c-0.769-8.466-2.308-12.077-2.576-14.791
	c-1.222-12.977-0.014-11.836,0.079-15.801c0,0,8.213,2.107,12.476,11.866c2.821,6.456,6.102,12.342,7.38,13.234
	c1.293,0.951,3.099-1.16,3.869-5.426c0.772-4.264,6.124-20.8,8.231-27.672c2.409-7.834,4.683-18.626,5.452-22.119
	C60.363,455.072,66.276,447.933,66.276,447.933"/>
<path fill="#9F8946" d="M66.276,447.933l-3.145,2.144c0.004,0.004,0.855,1.256,2.182,3.29c1.984,3.051,5.006,7.826,7.604,12.494
	c2.605,4.597,4.768,9.41,5.014,11.287c1.401,8.771,5.128,12.713,5.619,13.167l3.233,3.125l2.549-3.705
	c0.004-0.007,2.884-4.196,6.243-8.953c3.341-4.734,7.247-10.134,8.96-12.148c1.966-2.312,5.158-6.217,8.235-9.871
	c1.535-1.825,3.04-3.579,4.319-5.017c1.263-1.423,2.371-2.571,2.842-2.973l0.026-0.022l-0.007,0.007
	c0.75-0.717,3.185-1.996,5.232-2.817c1.037-0.431,2-0.792,2.694-1.041c0.699-0.249,1.093-0.375,1.097-0.379l-1.171-3.62
	l-3.779,0.454l0.026,0.238c0.052,0.558,0.167,2.048,0.167,4.229c0,2.598-0.167,6.173-0.799,10.306
	c-1.442,9.432-1.594,16.322-2.271,20.075l-0.003,0.022l0.007-0.041c-0.673,3.761-2.572,14.356-3.296,17.511l-0.007,0.026
	l0.003-0.008c-0.331,1.479-0.464,2.665-0.464,3.665c-0.007,1.679,0.409,2.914,0.974,3.69l1.906,2.65l2.91-1.483
	c0.543-0.261,5.965-3.244,9.6-11.65c3.207-7.347,5.139-11.309,6.209-14.802l-0.531-0.16l0.494,0.257l0.037-0.097l-0.531-0.16
	l0.494,0.257c-0.015-0.179,1.509-1.65,2.965-2.535c0.729-0.476,1.438-0.889,1.955-1.174l0.605-0.328l0.19-0.096l-1.691-3.408
	l-3.504,1.483l0.003,0.015c0.179,0.427,2.423,6.206,2.419,14.761c0,0.724-0.019,1.475-0.052,2.241
	c-0.495,11.499,0.401,22.351-2.156,30.504c-1.631,5.344-2.717,8.584-2.739,12.509c0.004,2.734,0.564,5.389,1.553,8.845
	c1.145,3.976,2.226,6.422,2.865,8.108c0.628,1.725,0.858,2.475,0.884,4.52l-0.018,0.885l-0.004,0.036l0.004-0.052
	c-0.119,2.698-0.186,5.924-0.186,8.748c0,1.731,0.022,3.308,0.078,4.557l0.119,1.657l0.119,0.796
	c0.108,0.326,0.041,0.587,0.646,1.583l-0.037-0.053l0.03,0.045c0.539,0.78,0.963,1.457,1.854,2.208l1.862,1.04
	c0.699,0.261,1.186,0.408,2.319,0.914c1.111,0.505,2.78,1.346,5.311,2.848l1.94-3.278h-3.806c0,0.015,0,5.597-0.074,12.731
	c-0.079,7.136-0.23,15.816-0.532,21.882l-0.007,0.327c0.004,1.918,0.773,3.5,1.631,4.683c1.315,1.776,2.928,2.966,4.411,3.962
	c1.472,0.974,2.88,1.724,3.597,2.14l1.899-3.3l-1.958,3.264l1.201,1.011l0.145,0.208l1.238-0.706l-1.312,0.55l0.074,0.156
	l1.238-0.706l-1.312,0.55l3.512-1.472l-3.806-0.044c0,0.006-0.137,11.824-0.137,16.945l-0.004,1.777
	c0.004,4.623,0.086,10.122,1.981,16.226c0.676,2.14,1.888,4.392,3.43,6.941c2.315,3.79,5.385,8.042,8.41,11.811
	c3.055,3.783,5.931,6.993,8.313,8.934l-0.041-0.037l0.026,0.022c4.485,3.53,9.28,10.799,17.965,16.032
	c2.453,1.441,5.73,2.712,9.603,4.058c5.779,1.992,12.773,4.029,18.964,5.916c6.143,1.852,11.673,3.688,13.665,4.787
	c6.477,3.427,15.898,11,22.405,19.688c3.453,4.563,6.399,8.696,8.759,11.855c1.186,1.583,2.215,2.922,3.148,3.999l1.386,1.464
	c0.494,0.438,0.955,0.862,1.876,1.286l0.026,0.015h0.003l1.07-2.505l-1.349,2.364l0.279,0.141l1.07-2.505l-1.349,2.364l0.004,0.007
	c0.249,0.156,1.233,0.854,2.501,1.807c4.526,3.381,13.468,10.36,21.243,16.463c7.782,6.109,14.396,11.35,14.412,11.357l2.364-2.98
	l-2.49-2.877c-0.026,0.022-11.23,9.722-23.996,21.77c-12.788,12.094-27.025,26.305-33.573,36.167
	c-3.029,4.602-6.321,9.478-10.302,13.045c-4.01,3.574-8.439,5.864-14.526,5.894c-5.333,0.008-12.189-1.88-21.008-7.157
	c-2.75-1.643-10.257-6.719-17.255-11.372c-3.516-2.333-6.931-4.578-9.67-6.295c-1.371-0.855-2.568-1.584-3.568-2.148l-1.39-0.729
	c-0.465-0.208-0.803-0.394-1.602-0.572h-0.019l-0.026-0.007l-0.174,0.913l0.268-0.891l-0.093-0.022l-0.174,0.913l0.268-0.891
	c-0.22-0.046-1.747-0.715-3.512-1.584c-2.72-1.315-6.388-3.182-10.067-4.823c-3.713-1.644-7.313-3.1-10.599-3.605l0.022,0.008
	c-6.704-1.078-11.654-2.356-19.042-8.748c-7.99-7.017-13.925-10.814-20.763-12.056l-0.044-0.008l0.026,0.008
	c-2.535-0.446-4.129-1.122-5.047-1.762c-0.921-0.646-1.264-1.166-1.549-1.902l0.007,0.021l0.003,0.016
	c-0.375-1.062-0.966-2.2-1.955-3.122c-1.539-1.405-3.304-1.762-4.723-1.947c-1.483-0.186-3.007-0.245-5.04-0.438h-0.015
	c-2.264-0.2-4.081-0.877-5.311-1.486l-1.36-0.788l-0.297-0.208l-0.045-0.03l-1.011,1.271l1.041-1.248l-0.03-0.023l-1.011,1.271
	l1.041-1.248l-2.438,2.92l1.405,3.538c0.249-0.104,1.561-0.64,3.125-1.918c1.55-1.271,3.4-3.389,4.244-6.487l0.004-0.016
	c0.193-0.721,0.305-1.464,0.305-2.223c0.019-1.65-0.598-3.255-1.412-4.4c-1.238-1.738-2.687-2.794-4.181-3.961
	c-1.505-1.16-3.122-2.371-4.809-3.954c-5.263-4.928-14.044-15.066-19.689-20.908c-5.801-5.968-10.914-9.439-11.056-9.543
	l-2.137,3.151l0.628,3.753c0.238-0.044,1.182-0.208,2.431-0.803c1.237-0.587,2.85-1.649,4.054-3.537l0.777-1.271
	c0.342-0.624,0.684-1.68,0.669-2.69c-0.063-1.97-0.71-3.204-1.631-5.113c-0.959-1.903-2.401-4.46-4.608-8.354
	c-6.819-12.026-20.083-32.161-30.544-51.039c-9.963-18.032-12.301-25.807-15.363-33.083c-1.291-3.025-2.613-8.229-3.523-12.524
	c-0.461-2.155-0.833-4.11-1.089-5.515c-0.257-1.404-0.391-2.245-0.391-2.245l-3.757,0.609l-1.467,3.509
	c0.003,0.008,0.468,0.2,1.271,0.558c2.386,1.04,7.756,3.619,10.354,5.641l0.011,0.008c4.895,3.701,10.075,5.337,10.287,5.426
	l4.835,1.568l0.145-5.084l0.007-0.848c-0.004-2.69-0.204-11.513-2.661-22.632c-2.671-12.063-5.091-27.872-5.076-37.171l0.019-1.263
	c0.181-4.028,1.211-5.367,2.679-7.24c0.747-0.921,1.691-1.888,2.616-3.24c0.925-1.346,1.761-3.203,1.892-5.352
	c0.074-1.077,0.104-2.386,0.104-3.909c-0.004-7.529-0.736-20.276-1.39-27.448c-0.795-8.734-2.482-13.119-2.579-14.817l0.004,0.056
	l-0.004-0.037c-0.397-4.237-0.527-6.886-0.523-8.6c0.003-1.747,0.107-2.449,0.234-3.248c0.134-0.792,0.353-1.917,0.386-3.508
	l-3.805-0.089l-0.944,3.687l0.198-0.769l-0.223,0.762l0.025,0.007l0.198-0.769l-0.223,0.762c0.156,0.044,1.858,0.572,3.879,2.025
	c2.025,1.464,4.378,3.805,6.08,7.685c1.457,3.334,3.021,6.508,4.43,9.035c0.706,1.264,1.371,2.363,1.999,3.285
	c0.688,0.944,1.082,1.62,2.26,2.513l2.178-3.122l-2.256,3.062c0.758,0.58,1.844,0.981,2.906,0.967c1.427,0,2.553-0.609,3.315-1.227
	c1.152-0.966,1.81-2.059,2.386-3.301c0.558-1.24,0.974-2.652,1.264-4.251c0.283-1.635,1.825-6.972,3.508-12.416
	c1.691-5.504,3.549-11.343,4.616-14.817c2.482-8.091,4.761-18.938,5.53-22.417c0.019-0.174,0.386-1.1,0.958-2.077
	c0.855-1.505,2.115-3.296,3.141-4.66l1.293-1.676l0.505-0.624L66.276,447.933l-3.145,2.144L66.276,447.933l-2.933-2.427
	c-0.037,0.045-1.561,1.884-3.226,4.236c-0.836,1.178-1.706,2.482-2.46,3.81c-0.755,1.345-1.416,2.631-1.78,4.214
	c-0.77,3.504-3.04,14.241-5.374,21.814c-1.041,3.4-2.91,9.265-4.616,14.817c-1.713,5.604-3.233,10.673-3.723,13.297
	c-0.253,1.449-0.673,2.49-0.93,2.898l-0.119,0.179l0.792,0.646l-0.524-0.854l-0.268,0.208l0.792,0.646l-0.524-0.854l1.308,2.125
	v-2.475l-1.308,0.35l1.308,2.125v-2.475v2.698l1.605-2.186l-1.605-0.513v2.698l1.605-2.186l-0.041-0.021l-0.038-0.03l-1.007,1.442
	l1.241-1.257l-0.234-0.186l-1.007,1.442l1.241-1.257l-0.242-0.297c-0.557-0.729-1.576-2.394-2.657-4.438
	c-1.089-2.052-2.289-4.526-3.408-7.087c-2.449-5.623-6.128-9.165-9.19-11.224c-3.074-2.069-5.522-2.724-5.827-2.805l-4.634-1.189
	l-0.115,4.787c-0.03,1.059-0.119,1.442-0.286,2.453c-0.167,1.003-0.342,2.401-0.335,4.482c0,2.081,0.149,4.935,0.562,9.313v0.015
	c0.438,3.73,1.828,6.57,2.571,14.761c0.632,6.875,1.364,19.674,1.36,26.758c0,1.42-0.029,2.608-0.088,3.39l-0.603,1.612
	c-0.605,0.966-2.137,2.364-3.683,4.667c-1.549,2.305-2.832,5.59-2.917,9.879l-0.019,1.456c0.019,10.428,2.508,26.304,5.255,38.813
	c2.3,10.376,2.482,18.693,2.482,20.989l-0.007,0.64l3.806,0.104l1.174-3.619l-0.138-0.045c-0.788-0.268-4.728-1.769-7.89-4.191
	l0.012,0.007c-2.535-1.933-5.772-3.635-8.474-4.965c-2.69-1.315-4.801-2.2-4.846-2.223L0,610.271l1.093,6.757
	c0.007,0.036,0.587,3.619,1.549,8.131c0.977,4.526,2.278,9.9,3.954,13.892c2.851,6.757,5.567,15.482,15.716,33.811
	c10.647,19.206,24.007,39.504,30.582,51.106c2.196,3.872,3.627,6.423,4.437,8.027c0.405,0.803,0.651,1.367,0.758,1.665l0.071,0.23
	l0.992-0.208h-1.007l0.015,0.208l0.992-0.208h-1.007h1.732l-1.554-0.803l-0.179,0.803h1.732l-1.554-0.803l-0.086,0.142l-0.345,0.527
	l-0.91,0.765l-0.428,0.164l0.034,0.111l-0.019-0.111h-0.015l0.034,0.111l-0.019-0.111l-9.376,1.569l7.868,5.335l0.167,0.112
	c0.888,0.624,5.095,3.687,9.696,8.429c5.418,5.589,14.156,15.705,19.946,21.152c2.72,2.558,5.202,4.237,6.648,5.441
	c0.725,0.587,1.156,1.056,1.29,1.256l0.074,0.119l0.134-0.045H92.87l0.011,0.045l0.134-0.045H92.87l-0.045,0.245l0.007-0.029
	l-0.003,0.015c-0.331,1.212-1.029,2.029-1.739,2.617l-0.899,0.616l-0.227,0.119l-0.022,0.008l0.81,1.895l-0.758-1.917l-0.052,0.022
	l0.81,1.895l-0.758-1.917l-5.942,2.363l4.909,4.096c0.346,0.274,4.363,3.598,11.182,4.229h-0.015
	c2.933,0.253,4.895,0.35,5.408,0.521l0.119,0.029l0.138-0.386l-0.215,0.342l0.078,0.044l0.138-0.386l-0.215,0.342l0.535-0.848
	l-0.822,0.587l0.287,0.261l0.535-0.848l-0.822,0.587h-0.003l0.093,0.223l0.011,0.038c0.758,2.118,2.278,4.14,4.404,5.574
	c2.129,1.449,4.771,2.393,8.027,2.966l-0.049-0.008l0.03,0.008c4.749,0.854,9.376,3.508,17.095,10.286
	c8.306,7.374,15.701,9.515,22.926,10.547l0.019,0.008c2.479,0.305,7.849,2.563,12.498,4.839c2.36,1.13,4.604,2.259,6.474,3.159
	c0.933,0.453,1.772,0.847,2.52,1.166c0.776,0.32,1.334,0.572,2.271,0.766l0.709-3.739l-0.754,3.732l0.383-1.903l-0.703,1.813
	l0.32,0.09l0.383-1.903l-0.703,1.813c0.037,0.008,0.776,0.372,1.672,0.899c3.248,1.888,9.454,5.991,15.382,9.944
	c5.968,3.984,11.628,7.798,14.349,9.425c9.596,5.746,17.768,8.235,24.918,8.243c8.194,0.03,14.724-3.397,19.622-7.849
	c4.932-4.452,8.5-9.894,11.554-14.509c5.637-8.585,19.845-22.951,32.451-34.821c6.314-5.961,12.26-11.357,16.623-15.259
	c4.363-3.902,7.121-6.289,7.128-6.296l3.475-3.01l-3.601-2.848c-0.003-0.007-9.242-7.32-18.711-14.73
	c-4.738-3.709-9.529-7.44-13.268-10.31c-1.869-1.427-3.471-2.646-4.69-3.545l-1.542-1.107l-0.595-0.401l-0.817-0.438l0.026,0.007
	l0.007,0.007l-0.732,1.673l1.085-1.479l-0.354-0.193l-0.732,1.673l1.085-1.479l-0.09-0.081c-0.616-0.528-2.371-2.713-4.481-5.597
	c-2.155-2.914-4.831-6.638-7.923-10.733c-7.358-9.736-17.229-17.696-24.899-21.821c-2.241-1.182-5.318-2.267-9.067-3.486
	c-5.593-1.813-12.521-3.798-18.756-5.76c-6.192-1.926-11.837-3.962-14.1-5.337c-7.031-4.133-11.253-10.569-17.054-15.394
	l-0.015-0.014c-2.003-1.576-6.303-6.452-9.989-11.439c-1.866-2.504-3.631-5.076-5.01-7.336c-1.378-2.236-2.371-4.259-2.653-5.232
	c-1.527-4.921-1.643-9.439-1.643-13.973l0.004-1.777c0-5.017,0.138-16.842,0.138-16.857l0.007-0.787l-0.301-0.729
	c-0.208-0.506-1.327-2.81-4.378-4.646l-0.03-0.015l-0.03-0.022c-1.193-0.677-2.932-1.605-4.251-2.632l-1.401-1.345l-0.186-0.312
	l-0.286,0.104h0.297l-0.011-0.104l-0.286,0.104h0.297h-0.817l0.817,0.045v-0.045h-0.817l0.817,0.045
	c0.617-12.517,0.613-34.956,0.613-34.985v-2.171l-1.866-1.107c-4.783-2.839-7.261-3.768-8.466-4.199l-0.409-0.148l-0.587,1.278
	l1.022-0.966l-0.435-0.312l-0.587,1.278l1.022-0.966l-0.004-0.008l-0.457-0.646l0.033,0.052l-0.041-0.059l-2.627,1.768l3.122-0.646
	c-0.059-0.104,0.056-0.208-0.495-1.121l-2.627,1.768l3.122-0.646l-0.554,0.119l0.562-0.089l-0.008-0.03l-0.554,0.119l0.562-0.089
	c-0.023-0.119-0.09-0.914-0.116-1.888c-0.033-0.996-0.048-2.245-0.048-3.605c0-2.705,0.063-5.856,0.178-8.406l0.004-0.074
	l-0.004,0.06l0.026-1.196c0.026-2.914-0.602-5.218-1.379-7.21c-0.766-2.021-1.635-3.939-2.668-7.521
	c-0.922-3.204-1.256-5.113-1.256-6.741c-0.019-2.268,0.706-4.817,2.404-10.272c3.092-10.315,1.929-21.569,2.483-32.391
	c0.041-0.892,0.059-1.75,0.059-2.59c-0.007-10.54-2.895-17.426-3.025-17.742l-1.576-3.724l-3.62,1.799
	c-0.093,0.044-1.884,0.933-3.914,2.3c-1.021,0.688-2.103,1.494-3.106,2.464c-0.985,0.993-1.988,2.092-2.568,3.895
	c-0.718,2.445-2.646,6.548-5.894,13.958c-1.409,3.244-3.059,5.262-4.296,6.466l-1.457,1.223l-0.338,0.223l0.104,0.175l-0.093-0.182
	l-0.011,0.007l0.104,0.175l-0.093-0.182l1.729,3.394l3.088-2.223l-2.282,1.643l2.728-0.77l-0.446-0.874l-2.282,1.643l2.728-0.77
	l-0.662,0.189l0.688-0.089l-0.026-0.101l-0.662,0.189l0.688-0.089l-0.011-0.219c0-0.309,0.044-0.956,0.278-2l-0.011,0.048
	l0.007-0.03c0.829-3.624,2.683-14.048,3.371-17.868l0.003-0.019c0.822-4.834,0.903-11.216,2.293-20.231
	c0.703-4.579,0.889-8.533,0.889-11.458c0-3.27-0.23-5.247-0.246-5.374l-0.554-4.59l-4.396,1.424
	c-0.063,0.018-1.996,0.643-4.37,1.631c-2.401,1.026-5.151,2.249-7.351,4.137l0.015-0.011l0.004-0.004
	c-1.015,0.896-2.148,2.111-3.523,3.65c-4.058,4.552-9.837,11.688-12.676,15.028c-2.145,2.546-5.957,7.849-9.369,12.676
	c-3.393,4.805-6.295,9.027-6.303,9.034l3.137,2.156l2.646-2.735l-1.583,1.635l1.635-1.583l-0.052-0.052l-1.583,1.635l1.635-1.583
	l-0.075-0.085c-0.416-0.505-2.43-3.077-3.375-8.882c-0.479-2.761-1.724-5.652-3.296-8.882c-4.719-9.54-12.683-21.179-12.728-21.257
	l-2.85-4.177l-3.226,3.895L66.276,447.933z"/>
<path fill="#86743A" d="M806.392,447.933c0,0-14.114,20.696-15.4,28.601c-1.293,7.923-4.504,11.045-4.504,11.045
	s-11.58-16.85-15.445-21.402c-3.85-4.538-12.828-15.679-15.786-18.273c-2.958-2.605-10.376-5.002-10.376-5.002
	s-0.788,6.578,0.624,15.802c1.413,9.224,1.517,15.861,2.274,20.153c0.685,3.791,2.557,14.3,3.329,17.689
	c0.759,3.4,0.12,4.3,0.12,4.3s-4.624-2.353-7.85-9.774c-3.21-7.384-5.143-11.417-6.035-14.386c-0.907-3.007-7.641-6.348-7.641-6.348
	s-3.181,7.492-2.66,18.671c0.505,11.164-0.521,22.216,2.318,31.447c2.839,9.217,3.464,11.135,1.159,19.191
	c-2.318,8.057-4.117,8.845-3.864,14.716c0.253,5.843,0.253,14.465-0.134,15.044c-1.962,2.929-0.788,0.327-10.123,5.85
	c0,0,0,22.462,0.594,34.8c0.164,3.493-5.529,6.361-7.714,7.625c-2.186,1.309-2.825,2.854-2.825,2.854s0.134,11.832,0.134,16.901
	c0,5.055,0.134,10.644-1.813,16.872c-1.933,6.244-13.765,21.719-18.894,25.851c-5.158,4.177-9.67,11.03-17.512,15.713
	c-7.863,4.668-35.007,10.896-42.083,14.672c-7.076,3.775-16.724,11.543-23.666,20.759c-6.964,9.217-11.848,16.627-13.646,17.407
	c-1.799,0.773-38.739,30.014-38.739,30.014s44.7,38.708,56.89,57.156c8.741,13.237,20.692,31.076,50.942,12.947
	c5.961-3.56,29.731-20.127,32.302-20.648c2.572-0.489,16.977-8.948,23.919-9.959c6.949-1.056,13.141-2.765,20.975-9.646
	c7.856-6.898,13.142-10.124,18.938-11.172c5.783-1.019,8.474-3.248,9.514-6.103c1.025-2.868,2.824-2.46,8.473-2.988
	c5.679-0.505,9.098-3.359,9.098-3.359s-3.938-1.561-5.099-5.871c-1.145-4.251,3.479-5.56,9.008-10.777
	c5.546-5.188,14.301-15.312,19.831-21.034c5.53-5.693,10.465-9.038,10.465-9.038s-2.497-0.417-3.909-2.632
	c-1.413-2.215-1.814-1.68,4.891-13.512c6.689-11.811,20.009-32.027,30.562-51.07c10.064-18.18,12.591-26.43,15.549-33.446
	c2.951-7.017,5.247-21.153,5.247-21.153s-8.22,3.435-12.472,6.69c-4.251,3.24-9.157,4.83-9.157,4.83s-0.268-9.722,2.572-22.55
	c2.824-12.873,5.396-29.642,5.144-39.356c-0.252-9.767-6.823-10.42-7.21-15.986c-0.386-5.582,0.521-22.32,1.278-30.757
	c0.788-8.466,2.319-12.077,2.572-14.791c1.233-12.977,0.029-11.836-0.074-15.801c0,0-8.206,2.107-12.473,11.866
	c-2.824,6.456-6.109,12.342-7.373,13.234c-1.293,0.951-3.092-1.16-3.864-5.426c-0.773-4.264-6.125-20.8-8.236-27.672
	c-2.407-7.834-4.682-18.626-5.455-22.119C812.309,455.072,806.392,447.933,806.392,447.933"/>
<path fill="#9F8946" d="M806.392,447.933l-3.144-2.144c-0.022,0.037-3.583,5.254-7.336,11.524c-1.881,3.14-3.812,6.537-5.389,9.733
	c-1.568,3.229-2.817,6.125-3.285,8.878c-0.58,3.542-1.562,5.879-2.327,7.284c-0.379,0.702-0.713,1.171-0.914,1.435l-0.2,0.249
	l-0.016,0.011l1.636,1.576l-1.583-1.628l-0.053,0.052l1.636,1.576l-1.583-1.628l2.653,2.728l3.136-2.156
	c-0.006-0.007-2.905-4.229-6.302-9.034c-3.419-4.831-7.225-10.134-9.381-12.676c-1.88-2.219-5.099-6.15-8.213-9.852
	c-1.56-1.854-3.1-3.654-4.459-5.177c-1.367-1.535-2.497-2.75-3.501-3.642c-2.2-1.88-4.95-3.104-7.351-4.129
	c-2.371-0.988-4.303-1.613-4.37-1.631l-4.393-1.424l-0.551,4.59c-0.015,0.126-0.252,2.104-0.252,5.366
	c0,2.921,0.186,6.879,0.892,11.465c1.383,9.012,1.457,15.393,2.289,20.239l0.007,0.063l-0.007-0.048
	c0.691,3.813,2.542,14.241,3.367,17.86l-0.015-0.048l0.008,0.03c0.237,1.047,0.281,1.698,0.281,2.01l-0.007,0.223l1.107,0.138
	l-1.04-0.379l-0.067,0.242l1.107,0.138l-1.04-0.379l2.913,1.067l-2.527-1.788l-0.386,0.721l2.913,1.067l-2.527-1.788l3.107,2.201
	l1.724-3.394l-0.089,0.179l0.104-0.175l-0.016-0.004l-0.089,0.179l0.104-0.175c-0.417-0.256-3.635-2.26-6.096-7.901
	c-3.233-7.414-5.165-11.521-5.886-13.966c-0.58-1.806-1.584-2.906-2.572-3.895c-2.973-2.828-6.86-4.656-7.017-4.764l-3.619-1.795
	l-1.576,3.717c-0.134,0.319-3.018,7.179-3.024,17.685c0,0.859,0.022,1.744,0.066,2.65c0.527,10.821-0.631,22.082,2.482,32.383
	c1.694,5.456,2.415,8.006,2.394,10.265c0,1.636-0.334,3.546-1.256,6.765c-1.033,3.574-1.896,5.492-2.661,7.506
	c-0.78,1.993-1.404,4.296-1.375,7.202l0.029,1.227c0.104,2.534,0.171,5.664,0.171,8.362c0,1.672-0.029,3.182-0.074,4.252
	l-0.073,1.174l-0.016,0.111l1.048,0.155l-1.025-0.26l-0.022,0.104l1.048,0.155l-1.025-0.26l3.226,0.811l-2.765-1.836
	c-0.432,0.699-0.409,0.892-0.461,1.025l3.226,0.811l-2.765-1.836l0.021-0.029l-0.007,0.015l-0.438,0.624l-0.03,0.037l1.026,0.952
	l-0.796-1.145l-0.23,0.192l1.026,0.952l-0.796-1.145l0.788,1.122l-0.579-1.249l-0.209,0.127l0.788,1.122l-0.579-1.249l-0.617,0.23
	c-1.315,0.468-3.738,1.442-8.258,4.117l-1.866,1.107v2.171c0,0.029,0,22.469,0.603,34.985l-0.007-0.022l0.334-0.016h-0.334v0.016
	l0.334-0.016h-0.334h0.305l-0.291-0.11l-0.014,0.11h0.305l-0.291-0.11c0.016,0.134-0.831,1.188-2.096,2.036
	c-1.248,0.885-2.683,1.657-3.73,2.26l-0.016,0.007l-0.036,0.022c-3.062,1.829-4.178,4.147-4.386,4.66l-0.298,0.722l0.008,0.779
	c0,0.016,0.134,11.833,0.134,16.857v1.858c0,4.504-0.111,8.994-1.643,13.877c-0.289,0.988-1.278,3.011-2.661,5.247
	c-2.065,3.39-5.002,7.47-7.842,11.008c-2.816,3.53-5.678,6.607-7.142,7.768c-5.827,4.838-10.057,11.274-17.08,15.407
	c-1.472,0.892-4.534,2.155-8.184,3.404c-5.508,1.902-12.449,3.925-18.701,5.827c-6.302,1.933-11.721,3.62-15.035,5.352
	c-7.671,4.125-17.549,12.085-24.914,21.829c-3.516,4.653-6.496,8.83-8.771,11.878c-1.13,1.523-2.096,2.757-2.803,3.575l-0.803,0.854
	l-0.104,0.089l1.085,1.486l-0.728-1.68l-0.357,0.193l1.085,1.486l-0.728-1.68l-0.061,0.03l0.074-0.03l-0.811,0.438
	c-0.697,0.446-1.627,1.13-2.979,2.141c-9.29,6.95-35.788,27.932-35.811,27.946l-3.604,2.848l3.478,3.01
	c0.008,0.007,2.766,2.394,7.128,6.296c6.541,5.849,16.649,15.065,26.223,24.505c9.559,9.402,18.641,19.168,22.855,25.575
	c3.055,4.615,6.622,10.057,11.55,14.509c4.898,4.451,11.424,7.879,19.615,7.849c7.15-0.008,15.318-2.497,24.906-8.243
	c3.203-1.917,10.555-6.904,17.57-11.558c3.493-2.319,6.876-4.534,9.507-6.184c1.308-0.825,2.438-1.502,3.248-1.962l0.937-0.491
	l0.156-0.074l-0.698-1.813l0.378,1.903l0.32-0.09l-0.698-1.813l0.378,1.903l-0.751-3.732l0.715,3.739
	c0.929-0.193,1.494-0.445,2.267-0.766c2.557-1.106,6.563-3.211,10.77-5.173c4.133-1.963,8.57-3.724,10.718-3.991l0.022-0.008
	c7.202-1.032,14.62-3.173,22.914-10.547c7.716-6.771,12.354-9.432,17.104-10.286h-0.015c3.247-0.573,5.886-1.517,8.02-2.966
	c2.125-1.435,3.648-3.449,4.407-5.582l0.007-0.015v-0.008l0.111-0.252l-0.765-0.461l0.438,0.758l0.326-0.297l-0.765-0.461
	l0.438,0.758l-0.209-0.349l0.149,0.378l0.06-0.029l-0.209-0.349l0.149,0.378c0.06-0.118,2.155-0.282,5.522-0.55h-0.06h0.037
	c6.83-0.631,10.852-3.954,11.201-4.229l4.912-4.104l-5.945-2.355l-0.758,1.902l0.81-1.88l-0.052-0.022l-0.758,1.902l0.81-1.88
	l-1.285-0.855c-0.662-0.587-1.294-1.36-1.599-2.49l-0.045-0.245h-0.148l0.141,0.045l0.008-0.045h-0.148l0.141,0.045l0.35-0.453
	c0.915-1.086,4.088-3.048,7.648-6.37l0.022-0.015l-0.029,0.029c5.812-5.455,14.546-15.571,19.963-21.167
	c2.624-2.706,5.129-4.869,6.958-6.333c0.913-0.735,1.657-1.301,2.163-1.673l0.579-0.408l0.164-0.12l7.878-5.343l-9.388-1.562
	l-0.015,0.104l0.03-0.11l-0.016,0.007l-0.015,0.104l0.03-0.11l-1.338-0.914l-0.35-0.535l-0.09-0.148l-1.099,0.616l1.196-0.364
	l-0.098-0.252l-1.099,0.616l1.196-0.364l-1.813,0.558h1.896l-0.082-0.558l-1.813,0.558h1.896h-0.997l0.981,0.208l0.022-0.208h-1.004
	l0.981,0.208c-0.015-0.022,0.305-0.943,1.16-2.542c0.847-1.628,2.185-3.991,4.103-7.388c6.57-11.596,19.935-31.894,30.585-51.1
	c10.16-18.328,12.873-27.054,15.728-33.811c1.664-3.991,2.966-9.365,3.946-13.892c0.959-4.504,1.539-8.095,1.546-8.131l1.101-6.765
	l-6.318,2.646c-0.052,0.015-2.163,0.899-4.854,2.215c-2.698,1.33-5.931,3.032-8.465,4.958c-1.8,1.375-3.858,2.475-5.441,3.195
	c-0.796,0.357-1.464,0.633-1.925,0.803l-0.521,0.193l-0.134,0.045l1.174,3.619l3.807-0.11l-0.008-0.596
	c0-2.259,0.178-10.599,2.49-21.019c2.734-12.518,5.231-28.378,5.247-38.806l-0.016-1.472c-0.074-5.738-2.452-9.611-4.429-11.9
	c-0.974-1.158-1.763-2.014-2.179-2.652l-0.609-1.599c-0.06-0.773-0.089-1.933-0.081-3.314c-0.008-7.062,0.729-19.935,1.353-26.84
	c0.758-8.19,2.148-11.03,2.571-14.779c0.416-4.4,0.565-7.262,0.565-9.347c0.008-2.066-0.171-3.456-0.335-4.456
	c-0.171-1.011-0.26-1.393-0.29-2.453l-0.126-4.775l-4.623,1.189c-0.305,0.082-2.757,0.736-5.82,2.805
	c-3.062,2.059-6.741,5.601-9.193,11.224c-1.368,3.118-2.854,6.12-4.11,8.373c-0.624,1.13-1.196,2.066-1.636,2.705l-0.498,0.677
	l-0.066,0.081l1.241,1.249l-1.011-1.435l-0.23,0.186l1.241,1.249l-1.011-1.435l-0.03,0.016l-0.029,0.021l1.605,2.186v-2.698
	l-1.605,0.513l1.605,2.186v-2.698v2.305l1.486-1.829c-0.148-0.118-0.653-0.468-1.486-0.476v2.305l1.486-1.829l-0.506,0.617
	l0.596-0.527l-0.09-0.09l-0.506,0.617l0.596-0.527c-0.038,0-0.743-1.183-1.049-3.085c-0.49-2.624-2.007-7.692-3.723-13.301
	c-1.71-5.548-3.575-11.413-4.624-14.813c-2.326-7.578-4.601-18.31-5.373-21.822c-0.365-1.579-1.034-2.861-1.784-4.207
	c-2.252-3.928-5.627-7.957-5.693-8.046l-3.226-3.895l-2.847,4.177L806.392,447.933l-2.928,2.427c0,0.004,0.326,0.401,0.869,1.089
	c0.803,1.029,2.044,2.676,3.106,4.3c1.063,1.568,1.903,3.341,1.925,3.649c0.773,3.479,3.048,14.327,5.538,22.421
	c1.062,3.471,2.929,9.309,4.615,14.813c1.681,5.444,3.227,10.781,3.508,12.416c0.395,2.134,0.989,3.925,1.881,5.441
	c0.454,0.757,0.989,1.464,1.762,2.103c0.766,0.625,1.888,1.234,3.322,1.234c1.055,0.015,2.148-0.394,2.898-0.959l-2.252-3.069
	l2.193,3.106c1.167-0.892,1.553-1.561,2.244-2.505c1.836-2.713,4.214-7.291,6.422-12.312c1.813-4.136,4.37-6.529,6.481-7.963
	c1.047-0.71,1.984-1.167,2.623-1.435l0.714-0.268l0.141-0.044l-0.222-0.77l0.192,0.777l0.029-0.007l-0.222-0.77l0.192,0.777
	l-0.943-3.687l-3.806,0.1c0.037,1.583,0.26,2.706,0.387,3.49c0.126,0.795,0.229,1.49,0.237,3.218c0,1.713-0.126,4.37-0.535,8.633
	c-0.082,1.684-1.754,6.068-2.572,14.803c-0.646,7.202-1.382,20.015-1.382,27.53c0,1.486,0.021,2.772,0.097,3.835
	c0.134,2.147,0.974,4.006,1.902,5.344c1.413,2.029,2.766,3.219,3.635,4.593c0.877,1.376,1.562,2.854,1.665,5.888l0.015,1.278
	c0.016,9.298-2.408,25.1-5.069,37.163c-2.467,11.163-2.668,20.008-2.668,22.661l0.008,0.817l0.148,5.077l4.831-1.568
	c0.216-0.089,5.396-1.725,10.287-5.426c1.725-1.33,4.727-2.973,7.202-4.169c1.233-0.61,2.355-1.123,3.166-1.479
	c0.803-0.357,1.263-0.55,1.263-0.558l-1.464-3.509l-3.753-0.609c0,0-0.142,0.841-0.394,2.245
	c-0.743,4.177-2.654,13.461-4.608,18.039c-3.062,7.276-5.404,15.051-15.371,33.083c-10.465,18.878-23.731,39.013-30.548,51.039
	c-2.199,3.895-3.642,6.451-4.608,8.347c-0.914,1.91-1.561,3.151-1.627,5.121c-0.015,1.011,0.327,2.066,0.669,2.69l0.78,1.271
	c1.211,1.888,2.824,2.95,4.058,3.537c1.256,0.595,2.192,0.759,2.438,0.803l0.624-3.753l-2.133-3.151
	c-0.142,0.104-5.263,3.567-11.061,9.535c-5.648,5.857-14.426,15.988-19.703,20.908l-0.038,0.037l0.03-0.021
	c-2.245,2.117-4.354,3.537-6.266,5.105c-0.951,0.796-1.888,1.636-2.705,2.795c-0.811,1.145-1.428,2.75-1.412,4.407
	c0,0.759,0.118,1.509,0.312,2.223c0.832,3.114,2.683,5.232,4.236,6.503c1.567,1.278,2.884,1.813,3.129,1.918l1.404-3.538
	l-2.438-2.92l1.048,1.248l-1.019-1.271l-0.029,0.023l1.048,1.248l-1.019-1.271c-0.044,0.045-2.779,2.148-7.023,2.513h-0.022
	c-2.713,0.275-4.482,0.237-6.54,0.713c-1.019,0.253-2.223,0.751-3.204,1.681c-0.988,0.914-1.583,2.044-1.955,3.106l0.008-0.022
	c-0.282,0.722-0.624,1.249-1.546,1.896c-0.922,0.64-2.52,1.315-5.055,1.762l-0.052,0.007l0.037-0.007
	c-6.846,1.241-12.776,5.031-20.773,12.056c-7.373,6.392-12.339,7.67-19.035,8.748l0.021-0.008
	c-4.466,0.707-9.766,3.182-14.693,5.515c-2.431,1.168-4.705,2.312-6.481,3.167c-0.885,0.424-1.65,0.78-2.207,1.018l-0.654,0.268
	l-0.134,0.046l0.268,0.898l-0.179-0.921l-0.089,0.022l0.268,0.898l-0.179-0.921l-0.022,0.007h-0.021
	c-0.796,0.179-1.138,0.364-1.599,0.572c-1.575,0.758-3.753,2.104-6.57,3.895c-4.17,2.669-9.491,6.229-14.293,9.432
	c-4.787,3.196-9.119,6.073-11.037,7.21c-8.815,5.285-15.668,7.173-20.997,7.165c-6.088-0.029-10.51-2.319-14.523-5.894
	c-3.976-3.567-7.27-8.443-10.295-13.045c-6.547-9.862-20.788-24.073-33.58-36.167c-12.761-12.048-23.962-21.747-23.992-21.77
	l-2.49,2.877l2.364,2.98c0.015-0.016,9.224-7.3,18.678-14.702c4.72-3.701,9.507-7.418,13.2-10.257
	c1.851-1.42,3.427-2.616,4.579-3.464l1.36-0.981l0.334-0.223l0.008-0.007l-1.353-2.364l1.07,2.498l0.282-0.134l-1.353-2.364
	l1.07,2.498h0.015c0.921-0.424,1.39-0.855,1.888-1.294c1.598-1.509,3.219-3.701,5.44-6.689c2.192-2.973,4.823-6.637,7.834-10.621
	c6.525-8.696,15.943-16.27,22.424-19.696c1.293-0.706,4.267-1.821,7.834-2.966c5.396-1.754,12.339-3.738,18.693-5.737
	c6.398-2.029,12.07-3.933,15.705-6.058c8.674-5.233,13.468-12.502,17.965-16.024c3.121-2.558,7.306-7.478,11.305-12.821
	c1.977-2.661,3.857-5.39,5.396-7.916c1.545-2.542,2.758-4.802,3.434-6.949c1.895-6.058,1.984-11.528,1.984-16.137v-1.858
	c0-5.121-0.134-16.939-0.134-16.945l-3.806,0.044l3.516,1.456l-1.338-0.557l1.264,0.721l0.074-0.164l-1.338-0.557l1.264,0.721
	c0.029-0.052,0.349-0.617,1.338-1.211l-1.954-3.264l1.901,3.293c0.967-0.564,3.092-1.657,5.092-3.203
	c1.011-0.788,2.029-1.703,2.899-2.892c0.854-1.175,1.628-2.757,1.628-4.676v-0.312l-0.008-0.037v0.015
	c-0.29-6.065-0.439-14.746-0.514-21.882c-0.074-7.135-0.074-12.717-0.074-12.731h-3.805l1.939,3.278
	c4.549-2.685,6.154-3.22,7.187-3.598c0.499-0.193,1.368-0.453,2.305-1.212c0.893-0.751,1.316-1.42,1.852-2.2l-0.016,0.022
	l0.022-0.037c0.603-0.996,0.535-1.249,0.639-1.576c0.172-0.951,0.201-1.739,0.253-2.943c0.038-1.167,0.06-2.571,0.06-4.095
	c0-2.81-0.067-6.014-0.186-8.696l-0.016-0.893c0.022-2.036,0.254-2.794,0.885-4.511c0.632-1.688,1.718-4.126,2.854-8.095
	c0.988-3.463,1.554-6.124,1.554-8.867c-0.022-3.917-1.101-7.149-2.736-12.501c-2.563-8.153-1.68-18.998-2.155-30.496
	c-0.036-0.792-0.052-1.554-0.052-2.301c0-4.545,0.632-8.302,1.257-10.884c0.312-1.29,0.616-2.286,0.84-2.944l0.252-0.717
	l0.067-0.152v-0.015l-3.501-1.486l-1.694,3.408l0.223,0.115c0.55,0.286,2.073,1.119,3.404,2.081l1.665,1.394l0.394,0.472
	l0.045,0.074l0.558-0.278l-0.595,0.182l0.037,0.096l0.558-0.278l-0.595,0.182c1.062,3.49,2.995,7.447,6.184,14.802
	c3.649,8.406,9.075,11.386,9.618,11.65l2.929,1.486l1.902-2.68c0.55-0.776,0.958-1.995,0.951-3.66c0-0.996-0.134-2.185-0.461-3.668
	l-0.008-0.019c-0.721-3.159-2.616-13.753-3.292-17.518l0.007,0.063l-0.007-0.048c-0.685-3.739-0.818-10.632-2.26-20.068
	c-0.632-4.136-0.802-7.715-0.802-10.313c0-1.453,0.052-2.597,0.104-3.367l0.066-0.858l0.022-0.234l-3.775-0.454l-1.167,3.62
	c0,0,0.394,0.13,1.093,0.379c1.04,0.372,2.69,1,4.273,1.732c1.568,0.709,3.106,1.609,3.664,2.125
	c0.476,0.413,1.584,1.561,2.847,2.988c3.851,4.33,9.618,11.432,12.554,14.892c1.71,2.014,5.627,7.41,8.964,12.145
	c3.359,4.757,6.236,8.945,6.244,8.953l2.557,3.716l3.232-3.144c0.49-0.453,4.191-4.389,5.604-13.159
	c0.172-1.201,1.175-3.861,2.61-6.734c2.147-4.366,5.217-9.499,7.722-13.49c1.256-1.996,2.379-3.717,3.182-4.932
	c0.803-1.215,1.278-1.914,1.278-1.914L806.392,447.933l-2.928,2.427L806.392,447.933z"/>
<path fill="#9F8946" d="M118.416,498.545c-4.144,5.467-8.276,10.956-11.58,15.884c-3.3,4.979-5.812,9.135-6.726,13.052l0.011-0.046
	l-0.007,0.03c-1.297,5.864-4.096,14.494-6.56,21.555c-1.23,3.538-2.378,6.689-3.218,8.964c-0.84,2.267-1.364,3.635-1.364,3.643
	l3.552,1.359l-2.397-2.958c-0.029,0.029-5.727,4.652-11.617,9.945c-2.947,2.652-5.935,5.47-8.339,8.02
	c-1.204,1.286-2.26,2.497-3.122,3.664c-0.855,1.204-1.576,2.2-1.992,3.872c-0.535,2.438-1.561,8.214-2.486,14.486
	c-0.914,6.28-1.724,12.836-1.735,17.058c0.003,0.869,0.033,1.658,0.141,2.445c0.736,5.366,3.88,33.566,4.649,39.192
	c0.205,1.36,0.651,2.497,1.234,3.851c4.081,9.038,16.705,26.979,23.224,33.899c1.208,1.249,3.002,2.697,5.552,4.652
	c17.679,13.454,69.413,47.465,87.716,56.941c20.324,10.524,43.135,22.826,52.467,27.561l0.015,0.007
	c4.62,2.312,17.73,8.92,29.682,14.954c11.948,6.028,22.718,11.462,22.74,11.477l3.434-6.793c-0.004,0-43.168-21.8-52.448-26.445
	l0.018,0.007c-9.131-4.631-32.03-16.976-52.411-27.53c-9.855-5.076-31.254-18.507-50.832-31.455
	c-9.803-6.48-19.188-12.858-26.523-18.046c-3.664-2.586-6.823-4.883-9.242-6.734c-2.401-1.82-4.147-3.292-4.664-3.85
	c-3.118-3.248-8.804-10.763-13.605-17.935c-2.408-3.598-4.626-7.135-6.247-10.041c-0.807-1.45-1.469-2.743-1.914-3.754
	c-0.454-0.989-0.666-1.784-0.65-1.799c-0.74-5.382-3.884-33.58-4.657-39.206l-0.067-1.398c-0.008-3.3,0.754-9.87,1.658-15.95
	c0.892-6.095,1.933-11.914,2.386-13.959l-0.788-0.178l0.75,0.312l0.038-0.134l-0.788-0.178l0.75,0.312
	c0.023-0.088,0.446-0.816,1.138-1.672c2.456-3.1,7.901-8.183,12.598-12.285c2.356-2.067,4.549-3.925,6.143-5.255
	c1.598-1.338,2.59-2.141,2.59-2.141l0.792-0.647l0.364-0.951c0.026-0.097,8.588-22.335,11.468-35.231l0.004-0.014
	c0.309-1.718,2.468-5.828,5.604-10.429c3.133-4.667,7.199-10.086,11.327-15.534L118.416,498.545z"/>
<path fill="#9F8946" d="M82.553,486.482c-0.974,3.226-1.2,3.854-1.509,5.173c-0.283,1.234-0.561,2.747-1.747,8.113
	c-0.959,4.407-3.627,11.205-6.34,17.834c-2.717,6.683-5.463,13.179-6.715,17.994c-0.257,0.967-0.732,1.673-1.713,2.632
	c-1.438,1.42-4.002,2.921-6.492,5.44c-2.508,2.497-4.653,6.459-4.589,11.625c0.003,2.49,0.427,5.247,1.323,8.406
	c2.553,8.972,4.129,21.524,5.01,31.715c0.445,5.099,0.724,9.625,0.892,12.873c0.167,3.241,0.223,5.173,0.223,5.181l7.611-0.224
	c-0.003-0.044-0.234-8.063-1.141-18.491c-0.917-10.443-2.475-23.234-5.273-33.135c-0.75-2.639-1.033-4.712-1.033-6.325
	c0.015-2.237,0.486-3.553,1.167-4.698c1.003-1.701,2.88-3.099,5.203-4.875c1.145-0.893,2.383-1.888,3.523-3.211
	c1.133-1.315,2.156-3.003,2.665-5.024c0.962-3.806,3.665-10.346,6.392-17.014c2.728-6.719,5.497-13.586,6.723-19.061
	c1.189-5.381,1.513-7.098,1.732-8.042c0.193-0.858,0.372-1.36,1.375-4.686L82.553,486.482z"/>
<path fill="#9F8946" d="M62.542,447.208c-0.004,0.008-2.925,15.051-5.958,31.883c-3.036,16.894-6.165,35.316-6.634,42.912
	c-0.082,1.286-0.115,2.631-0.115,4.007c0.019,14.693,4.002,33.558,4.018,33.691l7.447-1.562c0,0-0.234-1.122-0.598-3.076
	c-1.092-5.842-3.267-19.006-3.255-29.054c0-1.242,0.03-2.431,0.1-3.546c0.375-6.585,3.508-25.308,6.526-42.024
	c1.512-8.384,2.995-16.333,4.103-22.183c1.107-5.849,1.836-9.588,1.836-9.599L62.542,447.208z"/>
<path fill="#9F8946" d="M15.961,567.697c0.015,0.015,6.607,7.292,13.765,15.252c7.135,7.945,14.906,16.664,16.954,19.184
	l0.033,0.038l-0.041-0.053c2.539,3.122,6.377,6.556,9.681,9.364c3.293,2.788,5.998,4.869,6.031,4.892l4.631-6.036
	c0,0-0.632-0.489-1.68-1.322c-3.111-2.46-9.93-8.153-12.747-11.685l-0.008-0.014c-2.352-2.878-10.004-11.446-17.195-19.452
	c-7.169-7.975-13.784-15.281-13.784-15.281L15.961,567.697z"/>
<path fill="#9F8946" d="M153.772,572.396c-1.182,1.085-1.884,2.207-2.813,3.709c-3.077,5.128-7.229,14.389-10.934,23.041
	c-3.683,8.629-6.831,16.515-7.592,18.447c-0.435,1.138-0.628,2.215-0.922,3.783c-0.94,5.329-2.043,15.147-3.058,24.23
	c-0.506,4.525-0.981,8.852-1.39,12.257c-0.205,1.701-0.394,3.173-0.554,4.311c-0.156,1.114-0.312,1.977-0.357,2.125
	c-0.06,0.253-0.416,1.376-0.921,2.817c-1.799,5.158-5.642,15.386-9.016,24.268c-3.375,8.89-6.288,16.455-6.296,16.47l7.105,2.736
	c0-0.008,3.817-9.923,7.779-20.389c1.981-5.232,3.995-10.605,5.589-14.954c0.795-2.17,1.49-4.088,2.021-5.618
	c0.539-1.554,0.899-2.624,1.115-3.457c0.223-0.898,0.379-1.955,0.591-3.471c0.713-5.203,1.735-15.028,2.779-24.066
	c0.517-4.512,1.041-8.823,1.52-12.189c0.242-1.688,0.468-3.137,0.676-4.229l0.279-1.33l0.1-0.388l0.03-0.104
	c0.851-2.155,4.824-12.1,9.104-21.933c2.141-4.921,4.363-9.812,6.289-13.647c0.958-1.917,1.847-3.567,2.579-4.786l0.944-1.449
	l0.305-0.387l0.074-0.081l-0.052-0.052l0.048,0.059l0.004-0.007l-0.052-0.052l0.048,0.059L153.772,572.396z"/>
<path fill="#9F8946" d="M140.089,536.927c-0.06,0.045-6.366,4.438-13.899,10.777c-7.544,6.362-16.296,14.538-21.432,22.722
	c-5.147,8.302-8.031,19.703-9.896,29.879c-1.836,10.146-2.535,19.057-2.769,21.852c-0.041,0.558-0.052,1.138-0.052,1.903
	c0.004,5.462,0.732,19.771,1.46,33.521c0.364,6.868,0.729,13.557,1.003,18.834c0.271,5.255,0.454,9.231,0.45,10.25l-0.003,0.126
	l0.003-0.029v0.015c-0.067,1.896-0.279,4.646-0.476,6.883c-0.193,2.245-0.372,3.983-0.372,3.983l3.787,0.387l-3.241-1.999
	c-0.049,0.082-1.736,2.824-3.512,6.585c-1.758,3.806-3.671,8.503-3.965,13.178l0.004-0.015c-0.149,2.534-0.197,4.675-0.197,6.414
	c0,3.479,0.197,5.352,0.212,5.485l7.566-0.832l-0.022-0.223c-0.044-0.543-0.145-2.037-0.145-4.431c0-1.598,0.044-3.589,0.182-5.968
	v-0.016c0.111-2.727,1.654-7.017,3.256-10.354c0.791-1.68,1.579-3.158,2.162-4.207l0.699-1.219l0.241-0.401l0.458-0.743l0.089-0.87
	c0-0.044,0.721-7.075,0.877-11.371v-0.015l0.008-0.364c-0.004-1.509-0.186-5.307-0.461-10.644
	c-0.821-15.839-2.46-44.439-2.453-51.961l0.03-1.278c0.227-2.765,0.907-11.387,2.668-21.124c1.732-9.707,4.668-20.544,8.863-27.203
	c4.229-6.83,12.617-14.851,19.875-20.931c3.631-3.047,6.986-5.648,9.424-7.484c1.219-0.914,2.208-1.636,2.891-2.125l1.041-0.743
	L140.089,536.927z"/>
<path fill="#9F8946" d="M63.065,616.79c1.019,0.476,2.602,1.041,5.047,1.843c7.228,2.342,20.64,6.058,32.247,6.772h0.044h-0.026
	c1.862,0.104,3.794,0.147,5.756,0.147c14.152-0.007,30.106-2.267,30.199-2.274l-1.062-7.536c0,0-0.952,0.134-2.631,0.342
	c-5.032,0.617-16.471,1.857-26.505,1.857c-1.851,0-3.649-0.044-5.34-0.134h0.019c-6.894-0.408-15.084-2.125-21.763-3.895
	c-3.341-0.884-6.317-1.775-8.581-2.512c-2.229-0.721-3.917-1.367-4.132-1.479L63.065,616.79z"/>
<path fill="#9F8946" d="M39.452,700.042c0.007,0.008,1.94,0.625,5.024,1.703c4.624,1.612,11.785,4.243,18.515,7.201
	c6.701,2.907,13.1,6.377,15.59,8.823c3.809,3.598,9.893,12.338,15.683,21.108c5.86,8.823,11.509,17.697,15.579,22.588
	c4.441,5.27,10.885,8.927,16.92,11.685c6.028,2.727,11.725,4.474,14.498,5.343h0.011c2.193,0.661,5.687,2.431,8.496,4.542
	c2.873,2.059,4.928,4.697,5.099,5.834c0.635,2.58,2.327,10.688,3.824,18.024c1.505,7.351,2.839,14.011,2.843,14.025l7.462-1.501
	c-0.011-0.045-5.333-26.616-6.742-32.37c-1.189-4.37-4.445-7.425-7.934-10.115c-3.553-2.631-7.466-4.66-10.803-5.708h0.011
	c-2.753-0.854-8.105-2.512-13.627-5.01c-5.515-2.476-11.123-5.871-14.215-9.625c-3.46-4.117-9.224-13.081-15.077-21.919
	c-5.924-8.896-11.852-17.652-16.768-22.401c-2.731-2.579-6.563-4.839-10.945-7.076c-13.07-6.607-31.02-12.354-31.109-12.39
	L39.452,700.042z"/>
<path fill="#9F8946" d="M165.085,655.736c0,0-0.085,0.469-0.271,1.397c-0.561,2.787-2.014,9.484-4.489,17.69
	c-1.472,4.941-5.946,12.599-10.287,19.592c-2.174,3.517-4.311,6.912-6.061,9.916c-1.747,3.046-3.107,5.521-3.791,7.938
	c-0.483,1.932-0.524,4.058-0.55,7.046c0.011,13.713,2.739,42.173,3.4,48.356c0.84,7.752,2.482,11.55,2.646,11.907l6.935-3.137
	l-1.431,0.646l1.442-0.617l-0.011-0.029l-1.431,0.646l1.442-0.617c-0.022-0.06-1.315-3.092-2.025-9.617
	c-0.646-5.932-3.363-34.637-3.356-47.539c-0.022-2.668,0.183-4.816,0.286-5.062c0.212-0.893,1.379-3.308,3.021-6.095
	c2.471-4.244,6.002-9.692,9.261-15.186c3.263-5.522,6.276-11.021,7.793-15.942c3.426-11.356,4.95-19.853,4.969-19.957
	L165.085,655.736z"/>
<path fill="#9F8946" d="M24.163,630.956c0.019,0,0.799,0.714,1.731,1.665c3.389,3.427,10.12,10.718,16.504,17.511
	c3.2,3.397,6.317,6.683,8.938,9.336c2.661,2.684,4.634,4.623,6.199,5.775l0.045,0.03l-0.03-0.022
	c2.702,1.932,7.02,4.541,10.758,6.749c3.724,2.192,6.816,3.931,6.827,3.938l3.738-6.629c-0.007-0.008-3.043-1.718-6.704-3.873
	c-3.642-2.141-7.946-4.765-10.19-6.369l-0.044-0.038l0.056,0.045c-0.309-0.216-1.219-1.004-2.323-2.066
	c-3.943-3.769-10.918-11.216-17.181-17.913c-3.137-3.359-6.109-6.541-8.48-9.03c-1.189-1.248-2.226-2.318-3.077-3.174
	c-0.874-0.862-1.453-1.441-2.129-1.969L24.163,630.956z"/>
<path fill="#9F8946" d="M209.654,698.489c-0.011,0.037-1.891,6.035-3.779,13.297c-1.884,7.328-3.816,15.66-3.854,21.347l0.079,1.724
	c0.401,4.162,0.921,12.22,1.337,19.17c0.413,6.956,0.725,12.828,0.725,12.843l7.604-0.401c-0.004-0.038-1.249-23.562-2.092-32.347
	l-0.041-0.988c-0.034-3.999,1.762-12.421,3.608-19.43c0.918-3.529,1.839-6.778,2.531-9.134c0.691-2.356,1.145-3.806,1.145-3.806
	L209.654,698.489z"/>
<path fill="#9F8946" d="M235.052,708.211c0.003,0.008,0.672,4.14,1.349,9.395c0.676,5.24,1.337,11.64,1.334,15.772
	c0.018,1.687-0.157,3.07-0.25,3.284l-0.007,0.023l0.015-0.037c-0.328,1.122-0.417,2.11-0.509,3.389
	c-0.082,1.257-0.116,2.721-0.116,4.363c0.008,13.706,2.331,40.806,2.334,40.864l7.581-0.654c0-0.015-0.576-6.756-1.152-15.192
	c-0.58-8.413-1.152-18.529-1.152-25.018c0-1.539,0.033-2.861,0.097-3.865l0.115-1.227l0.059-0.35l0.019-0.096l-0.004,0.021
	l0.011-0.037c0.487-1.717,0.55-3.411,0.568-5.47c-0.019-9.588-2.776-26.282-2.78-26.386L235.052,708.211z"/>
<path fill="#9F8946" d="M204.422,765.271c-0.044,0.223-6.827,17.087-6.886,31.893c0,1.175,0.044,2.349,0.145,3.501l0.019,0.224
	l0.044,0.222c0.851,4.097,1.673,7.055,2.234,9.321c0.572,2.274,0.851,3.753,0.847,5.15c0,1.888-0.495,4.155-2.304,8.569
	c-2.263,5.501-3.415,8.526-4.024,10.25c-0.305,0.862-0.476,1.404-0.587,1.807c-0.104,0.438-0.193,0.616-0.215,1.36h7.611h-3.397
	l3.341,0.639l0.056-0.639h-3.397l3.341,0.639l-1.616-0.312l1.602,0.38l0.015-0.067l-1.616-0.312l1.602,0.38
	c-0.015-0.008,0.666-2.363,4.33-11.231c1.936-4.733,2.869-8.087,2.873-11.461c-0.003-2.43-0.476-4.593-1.074-6.994
	c-0.602-2.416-1.36-5.158-2.163-9.023l-3.727,0.773l3.79-0.327c-0.078-0.914-0.115-1.866-0.115-2.847
	c-0.011-6.243,1.561-13.632,3.17-19.354c0.803-2.861,1.606-5.321,2.208-7.054c0.301-0.861,0.55-1.546,0.721-2.014l0.26-0.677
	L204.422,765.271z"/>
<path fill="#9F8946" d="M183.057,679.498c-0.003,0.016-1.456,8.221-3.043,17.133c-1.583,8.904-3.312,18.545-3.835,21.265
	l0.004-0.015c-0.242,1.293-0.283,2.631-0.29,4.318c0.011,10.005,2.471,31.262,2.475,31.344l7.559-0.862
	c0-0.015-0.605-5.314-1.215-11.804c-0.609-6.481-1.211-14.203-1.208-18.678c-0.008-1.435,0.085-2.586,0.149-2.847l0.007-0.045
	l-0.003,0.03c1.084-5.664,6.89-38.494,6.894-38.516L183.057,679.498z"/>
<path fill="#9F8946" d="M129.866,766.579c-0.008,0-2.312,0.052-5.794,0.052c-3.835,0-9.083-0.06-14.096-0.312
	c-4.995-0.237-9.852-0.706-12.49-1.36l0.115,0.03l-0.123-0.03c-3.794-0.893-8.451-3.486-11.978-5.901
	c-1.773-1.196-3.285-2.341-4.34-3.174l-1.223-0.988l-0.397-0.342l-5.002,5.738c0.078,0.066,2.765,2.407,6.693,5.068
	c3.946,2.653,9.064,5.679,14.464,7.001l-0.112-0.029l0.104,0.029c3.672,0.877,8.682,1.294,13.914,1.562
	c5.21,0.252,10.555,0.319,14.471,0.319c3.553,0,5.931-0.053,5.95-0.053L129.866,766.579z"/>
<path fill="#9F8946" d="M132.114,620.454c0,0.008,3.649,14.301,7.6,28.913c1.977,7.306,4.028,14.694,5.749,20.447
	c0.862,2.876,1.639,5.344,2.301,7.231c0.334,0.944,0.635,1.747,0.933,2.438l0.483,0.996l0.903,1.24l0.056-0.044l-0.056,0.044
	l0.007,0.008l0.048-0.052l-0.056,0.044c0.178,0.187,0.892,1.36,1.538,2.758c1.011,2.134,2.115,4.913,2.944,7.121
	c0.832,2.207,1.389,3.835,1.389,3.843l0.012,0.036l0.015,0.03c0.007,0.021,4.679,12.88,9.536,26.407
	c2.427,6.765,4.898,13.691,6.849,19.244c1.94,5.507,3.408,9.825,3.664,10.799l7.344-1.991c-0.45-1.636-1.854-5.708-3.828-11.335
	c-5.876-16.73-16.412-45.718-16.416-45.726l-3.575,1.301l3.601-1.234c-0.015-0.036-1.122-3.27-2.557-6.867
	c-0.717-1.807-1.516-3.694-2.33-5.366c-0.866-1.702-1.527-3.062-2.813-4.408l-1.527,1.539l1.921-1.056l-0.39-0.476l-1.531,1.531
	l1.921-1.056c-0.107-0.156-0.698-1.605-1.315-3.493c-2.26-6.778-6.05-20.551-9.239-32.525c-3.192-11.98-5.801-22.208-5.809-22.23
	L132.114,620.454z"/>
<path fill="#9F8946" d="M82.598,488.823c0.003,0.007,0.921,2.664,2.308,6.801c2.078,6.199,5.199,15.697,7.786,24.341
	c1.293,4.319,2.453,8.429,3.274,11.773c0.833,3.286,1.29,6.028,1.26,6.749c0.015,1.167,0.245,2.073,0.546,3.107
	c1.145,3.738,3.761,9.067,7.158,15.734c5.077,9.923,11.844,22.477,17.348,34.16c2.753,5.835,5.188,11.454,6.923,16.352
	c1.747,4.884,2.75,9.112,2.798,11.767l7.611-0.193c-0.19-5.843-2.59-12.963-5.927-21.05c-5.028-12.062-12.35-25.954-18.4-37.579
	c-3.021-5.812-5.727-11.053-7.637-15.125c-0.956-2.036-1.713-3.783-2.197-5.1l-0.509-1.59l-0.093-0.432l-0.011-0.089l-0.382,0.037
	h0.382v-0.037l-0.382,0.037h0.382c-0.011-1.546-0.293-3.188-0.717-5.263c-1.498-7.112-5.058-18.707-8.269-28.682
	c-3.207-9.956-6.054-18.188-6.058-18.207l-7.194,2.49V488.823z"/>
<path fill="#9F8946" d="M206.737,763.063c0,0-9.904,3.366-20.399,6.979c-5.251,1.806-10.647,3.664-15.033,5.203
	c-4.411,1.546-7.711,2.72-9.086,3.27l0.048-0.015l-0.03,0.015c-0.78,0.319-4.318,1.42-8.755,2.721
	c-6.73,1.984-15.924,4.623-23.681,6.949c-3.88,1.159-7.395,2.245-10.101,3.145c-1.353,0.445-2.501,0.847-3.434,1.212l-1.271,0.535
	l-1.341,0.802l4.764,5.932l-1.129-1.404l0.84,1.604l0.29-0.2l-1.129-1.404l0.84,1.604c0.148-0.089,1.226-0.527,2.627-1.003
	c5.017-1.74,15.077-4.698,24.297-7.381c4.616-1.346,9.034-2.632,12.568-3.679c3.568-1.07,6.087-1.836,7.44-2.371l0.018-0.008
	c0.981-0.394,4.397-1.62,8.737-3.137c6.548-2.296,15.393-5.336,22.599-7.804c7.206-2.468,12.758-4.356,12.772-4.356L206.737,763.063
	z"/>
<path fill="#9F8946" d="M584.432,812.052c0.022-0.015,10.785-5.448,22.729-11.477c11.944-6.034,25.056-12.643,29.671-14.954
	l0.045-0.021l-0.03,0.015c9.35-4.734,32.154-17.036,52.475-27.561c10.51-5.433,31.797-18.827,51.545-31.871
	c9.855-6.511,19.287-12.925,26.721-18.18c3.709-2.624,6.927-4.957,9.461-6.891c2.549-1.955,4.341-3.403,5.545-4.646
	c3.761-3.961,9.417-11.498,14.427-18.96c2.498-3.724,4.801-7.396,6.57-10.569c0.885-1.591,1.643-3.055,2.229-4.385
	c0.579-1.346,1.026-2.482,1.227-3.851c0.766-5.618,3.917-33.811,4.646-39.199c0.104-0.772,0.134-1.546,0.134-2.416
	c-0.008-4.214-0.811-10.77-1.725-17.058c-0.922-6.272-1.947-12.062-2.49-14.508v0.015c-0.415-1.68-1.137-2.676-1.991-3.88
	c-2.974-3.984-8.592-9.149-13.661-13.631c-5.032-4.431-9.403-7.976-9.425-7.998l-2.401,2.958l3.554-1.359
	c0,0-0.521-1.368-1.36-3.643c-2.505-6.779-7.812-21.688-9.751-30.519c-0.915-3.901-3.435-8.057-6.727-13.036
	c-3.308-4.921-7.44-10.414-11.588-15.884l-6.064,4.601c4.132,5.448,8.197,10.859,11.326,15.526c3.145,4.601,5.3,8.711,5.619,10.437
	c2.876,12.895,11.41,35.141,11.438,35.237l0.365,0.951l0.787,0.647c0.008,0,1.39,1.122,3.509,2.905
	c3.181,2.676,7.989,6.809,12.033,10.674c2.014,1.924,3.843,3.791,5.136,5.299c0.646,0.751,1.16,1.42,1.472,1.896l0.305,0.52
	l0.029,0.06l0.989-0.363l-1.025,0.223l0.036,0.141l0.989-0.363l-1.025,0.223l0.007,0.06l-0.007-0.045
	c0.46,2.037,1.494,7.864,2.385,13.966c0.907,6.08,1.666,12.658,1.65,15.95l-0.059,1.39c-0.759,5.612-3.91,33.812-4.646,39.2
	c0.014,0.015-0.201,0.81-0.655,1.799c-3.166,7.351-16.247,26.044-21.762,31.729c-0.521,0.558-2.26,2.029-4.66,3.85
	c-16.999,12.985-69.279,47.324-86.604,56.235c-20.381,10.555-43.273,22.899-52.415,27.53l-0.022,0.015l0.037-0.021
	c-9.283,4.646-52.422,26.445-52.43,26.445L584.432,812.052z"/>
<path fill="#9F8946" d="M811.787,613.468c0-0.008,0.053-1.939,0.224-5.181c0.483-9.699,2.044-31.098,5.901-44.588
	c0.892-3.151,1.316-5.909,1.316-8.392c0.015-3.435-0.862-6.37-2.268-8.659c-2.118-3.441-5.017-5.329-7.039-6.935
	c-1.033-0.795-1.857-1.509-2.415-2.163c-0.565-0.661-0.877-1.219-1.07-1.955c-1.249-4.815-4.007-11.312-6.719-17.994
	c-2.713-6.629-5.382-13.427-6.333-17.827c-1.189-5.374-1.472-6.894-1.754-8.124c-0.312-1.312-0.535-1.933-1.502-5.158l-7.283,2.185
	c0.995,3.326,1.174,3.832,1.367,4.693c0.223,0.948,0.551,2.657,1.739,8.042c1.219,5.471,3.984,12.338,6.719,19.057
	c2.729,6.668,5.427,13.208,6.392,17.014c0.685,2.713,2.269,4.764,3.836,6.25c2.386,2.23,4.771,3.635,6.28,5.233
	c1.479,1.627,2.371,3.003,2.438,6.34c0,1.613-0.275,3.687-1.026,6.318c-2.802,9.893-4.362,22.684-5.276,33.127
	c-0.907,10.428-1.138,18.447-1.138,18.491L811.787,613.468z"/>
<path fill="#9F8946" d="M818.827,559.7c0.015-0.126,4.005-19.05,4.021-33.744c0-1.359-0.037-2.684-0.111-3.962
	c-0.468-7.596-3.605-26.01-6.646-42.9c-3.039-16.832-5.968-31.875-5.968-31.886l-7.478,1.457c0.008,0.007,0.736,3.746,1.844,9.596
	c1.665,8.774,4.177,22.272,6.354,34.881c2.178,12.569,4.014,24.423,4.297,29.314c0.066,1.101,0.096,2.275,0.096,3.501
	c0.008,6.689-0.951,14.812-1.925,21.19c-0.483,3.188-0.974,5.953-1.338,7.916c-0.356,1.954-0.595,3.084-0.595,3.092L818.827,559.7z"
	/>
<path fill="#9F8946" d="M810.301,616.374c0.03-0.022,2.736-2.104,6.028-4.892c3.308-2.809,7.143-6.242,9.685-9.364l-0.008,0.015
	c2.052-2.52,9.818-11.238,16.954-19.184c7.158-7.96,13.75-15.237,13.758-15.252l-5.634-5.113
	c-0.008,0.007-6.623,7.307-13.787,15.281c-7.188,8.006-14.843,16.574-17.191,19.452l-0.008,0.014
	c-1.857,2.319-5.56,5.701-8.688,8.348c-1.576,1.33-3.018,2.504-4.066,3.337c-1.04,0.833-1.68,1.322-1.68,1.322L810.301,616.374z"/>
<path fill="#9F8946" d="M762.762,707.854c-0.007-0.021-3.812-9.899-7.766-20.343c-1.978-5.225-3.984-10.576-5.568-14.88
	c-0.787-2.155-1.472-4.043-1.983-5.515c-0.506-1.449-0.87-2.564-0.929-2.824l0.007,0.015c-0.06-0.178-0.246-1.256-0.424-2.639
	c-0.676-4.949-1.71-14.828-2.757-23.903c-0.521-4.548-1.049-8.896-1.547-12.397c-0.253-1.747-0.49-3.285-0.729-4.556
	c-0.26-1.302-0.438-2.215-0.832-3.233l0.015,0.021c-0.877-2.222-4.854-12.203-9.202-22.178c-2.17-4.995-4.43-9.975-6.458-14.019
	c-1.019-2.029-1.97-3.82-2.861-5.299c-0.937-1.502-1.636-2.624-2.817-3.709l-5.024,5.723l0.044-0.059l-0.052,0.052l0.008,0.007
	l0.044-0.059l-0.052,0.052c0.149,0.126,0.841,1.055,1.568,2.333c2.684,4.563,6.831,13.743,10.384,22.09
	c3.561,8.369,6.607,16.01,7.328,17.846l0.016,0.022v0.015c0.088,0.238,0.342,1.338,0.579,2.758
	c0.869,5.062,1.978,14.828,2.958,23.695c0.491,4.444,0.959,8.681,1.368,12.063c0.2,1.687,0.386,3.166,0.558,4.362
	c0.178,1.219,0.312,2.081,0.497,2.868l0.008,0.016c0.216,0.825,0.58,1.896,1.115,3.449c3.724,10.636,15.393,40.938,15.4,40.961
	L762.762,707.854z"/>
<path fill="#9F8946" d="M785.484,727.662c0.015-0.126,0.208-1.991,0.208-5.471c0-1.731-0.052-3.872-0.193-6.399
	c-0.298-4.667-2.208-9.372-3.969-13.17c-1.77-3.769-3.449-6.504-3.501-6.585l-3.24,1.991l3.783-0.379
	c0-0.008-0.172-1.739-0.365-3.984c-0.2-2.244-0.408-5.002-0.476-6.897l-0.007-0.119c0-1.039,0.178-5.016,0.453-10.264
	c0.817-15.869,2.453-44.105,2.46-52.288c0-0.78-0.015-1.376-0.06-1.94c-0.223-2.795-0.922-11.706-2.765-21.852
	c-1.865-10.176-4.757-21.577-9.907-29.879c-5.121-8.177-13.877-16.352-21.414-22.722c-7.536-6.333-13.84-10.732-13.899-10.777
	l-4.354,6.244l1.041,0.743c2.385,1.716,8.555,6.279,15.08,11.98c6.519,5.686,13.401,12.591,17.088,18.56
	c4.206,6.659,7.143,17.496,8.882,27.203c1.762,9.737,2.438,18.359,2.668,21.124l0.03,1.315c0,5.01-0.721,19.443-1.45,33.097
	c-0.363,6.838-0.729,13.513-1.003,18.805c-0.268,5.321-0.453,9.128-0.461,10.65l0.008,0.401c0.163,4.289,0.877,11.32,0.884,11.357
	l0.082,0.87l0.461,0.743l0.237,0.408c0.58,0.974,2.082,3.628,3.449,6.728c1.375,3.069,2.557,6.674,2.668,9.067
	c0.135,2.379,0.179,4.378,0.179,5.968c0,1.599-0.044,2.795-0.09,3.583l-0.052,0.854l-0.022,0.23L785.484,727.662z"/>
<path fill="#9F8946" d="M736.354,623.278c0.089,0.008,16.032,2.268,30.191,2.274c1.962,0,3.895-0.044,5.761-0.147h0.021
	c7.744-0.469,16.263-2.29,23.241-4.134c3.493-0.921,6.586-1.851,8.994-2.639c2.445-0.795,4.036-1.367,5.047-1.836l-3.256-6.882
	c-0.23,0.119-1.917,0.766-4.146,1.486c-6.787,2.223-19.979,5.805-30.341,6.406h0.045h-0.022c-1.694,0.09-3.493,0.134-5.344,0.134
	c-6.689,0-14.011-0.549-19.629-1.099c-2.811-0.275-5.196-0.551-6.876-0.759c-1.672-0.208-2.623-0.342-2.631-0.342L736.354,623.278z"
	/>
<path fill="#9F8946" d="M711.15,820.919c0-0.015,1.338-6.675,2.84-14.025c1.501-7.336,3.195-15.444,3.827-18.032
	c0.171-1.129,2.223-3.768,5.099-5.826c2.803-2.119,6.296-3.881,8.488-4.542l-0.066,0.022l0.074-0.022
	c2.78-0.869,8.473-2.616,14.508-5.343c6.036-2.758,12.479-6.415,16.924-11.685c4.066-4.891,9.715-13.765,15.572-22.588
	c5.79-8.771,11.87-17.511,15.683-21.108c1.643-1.598,5.069-3.754,9.12-5.782c6.087-3.093,13.638-6.103,19.613-8.318
	c2.996-1.099,5.598-2.014,7.448-2.645c1.851-0.633,2.928-0.975,2.936-0.982l-2.333-7.238c-0.045,0.015-8.064,2.594-17.252,6.25
	c-4.601,1.829-9.483,3.925-13.854,6.14c-4.378,2.237-8.213,4.497-10.941,7.076c-4.913,4.749-10.845,13.505-16.768,22.401
	c-5.85,8.838-11.609,17.802-15.066,21.919c-3.092,3.754-8.703,7.149-14.219,9.625c-5.522,2.498-10.881,4.155-13.631,5.01h0.007
	c-3.337,1.041-7.246,3.077-10.799,5.708c-3.486,2.69-6.749,5.745-7.931,10.115c-1.412,5.754-6.734,32.325-6.741,32.37
	L711.15,820.919z"/>
<path fill="#9F8946" d="M726.982,779.586c0.163-0.356,1.821-4.162,2.652-11.922c0.669-6.169,3.39-34.554,3.405-48.289
	c-0.03-3.025-0.067-5.166-0.558-7.105c-0.685-2.416-2.045-4.898-3.791-7.938c-2.624-4.498-6.132-9.908-9.291-15.237
	c-3.159-5.3-5.945-10.592-7.046-14.278c-1.65-5.463-2.847-10.265-3.627-13.684c-0.394-1.71-0.684-3.077-0.869-4.006
	c-0.193-0.938-0.275-1.405-0.275-1.405l-7.492,1.353c0.022,0.098,1.561,8.601,4.979,19.949c2.015,6.533,6.697,14.234,11.082,21.384
	c2.193,3.553,4.311,6.928,5.961,9.752c1.644,2.787,2.81,5.202,3.025,6.102c0.104,0.245,0.312,2.423,0.29,5.114
	c0.008,12.925-2.705,41.562-3.359,47.472c-0.372,3.493-0.922,5.976-1.353,7.544c-0.208,0.781-0.401,1.338-0.521,1.672l-0.133,0.35
	l-0.022,0.045l1.464,0.64l-1.449-0.662l-0.015,0.022l1.464,0.64l-1.449-0.662L726.982,779.586z"/>
<path fill="#9F8946" d="M797.547,675.938c0.008-0.008,3.092-1.746,6.816-3.938c3.738-2.208,8.057-4.817,10.762-6.742l0.045-0.037
	l-0.022,0.022c0.93-0.677,1.895-1.561,3.129-2.734c4.252-4.074,11.194-11.499,17.481-18.226c3.137-3.353,6.103-6.526,8.429-8.972
	c1.167-1.218,2.17-2.267,2.95-3.039c0.751-0.758,1.368-1.316,1.376-1.309l-4.623-6.05c-0.766,0.602-1.45,1.293-2.513,2.356
	c-3.59,3.627-10.265,10.873-16.634,17.645c-3.182,3.382-6.273,6.63-8.815,9.209c-2.497,2.549-4.63,4.534-5.239,4.95l0.021-0.015
	c-2.259,1.612-6.562,4.236-10.205,6.377c-3.656,2.155-6.696,3.865-6.704,3.873L797.547,675.938z"/>
<path fill="#9F8946" d="M668.51,766.869c0-0.015,0.312-5.887,0.729-12.843c0.416-6.95,0.937-15.008,1.345-19.185l0.074-1.717
	c-0.036-5.687-1.97-14.018-3.857-21.339c-1.888-7.262-3.769-13.26-3.775-13.297l-7.27,2.274c0.008,0.007,0.462,1.449,1.152,3.806
	c1.033,3.53,2.595,9.074,3.88,14.568c1.293,5.463,2.282,11.021,2.26,13.987l-0.045,0.988c-0.848,8.801-2.088,32.316-2.088,32.354
	L668.51,766.869z"/>
<path fill="#9F8946" d="M633.479,785.258c0-0.06,2.319-27.182,2.327-40.872c0-1.644-0.038-3.1-0.112-4.356
	c-0.096-1.271-0.186-2.259-0.505-3.373c-0.089-0.216-0.268-1.599-0.246-3.301c-0.007-4.133,0.655-10.524,1.331-15.757
	c0.677-5.255,1.346-9.372,1.346-9.388l-7.508-1.219c-0.007,0.104-2.765,16.775-2.779,26.363c0.015,2.074,0.082,3.775,0.572,5.492
	l0.022,0.104c0.142,0.632,0.275,2.779,0.268,5.434c0,6.481-0.572,16.604-1.145,25.025c-0.58,8.436-1.152,15.192-1.152,15.207
	L633.479,785.258z"/>
<path fill="#9F8946" d="M678.982,837.568c-0.022-0.744-0.111-0.922-0.216-1.36c-0.327-1.174-1.219-3.791-4.623-12.063
	c-1.799-4.407-2.289-6.667-2.289-8.562c-0.008-1.397,0.274-2.876,0.84-5.158c0.564-2.259,1.375-5.225,2.223-9.313l0.044-0.222
	l0.022-0.224c0.097-1.16,0.149-2.326,0.149-3.508c-0.061-14.799-6.831-31.663-6.883-31.879l-7.076,2.779l0.253,0.685
	c1.219,3.196,6.132,17.444,6.095,28.415c0,0.987-0.045,1.939-0.119,2.854l3.79,0.327l-3.724-0.773
	c-0.803,3.865-1.56,6.615-2.162,9.023c-0.588,2.401-1.063,4.564-1.063,6.994c0,3.382,0.93,6.734,2.862,11.453
	c2.244,5.441,3.359,8.385,3.901,9.9c0.268,0.759,0.387,1.16,0.424,1.294l0.015,0.045l2.944-0.706h-3.019l0.074,0.706l2.944-0.706
	h-3.019H678.982z"/>
<path fill="#9F8946" d="M694.316,753.543c0-0.082,2.459-21.347,2.467-31.352c-0.008-1.688-0.044-3.018-0.29-4.304l0.008,0.008
	c-0.528-2.72-2.252-12.36-3.836-21.265c-1.582-8.912-3.032-17.117-3.04-17.133l-7.491,1.324c0,0.021,5.805,32.852,6.89,38.516
	l-0.008-0.067l0.016,0.075c0.059,0.268,0.148,1.412,0.141,2.846c0.008,4.475-0.594,12.197-1.204,18.679
	c-0.609,6.496-1.219,11.796-1.219,11.811L694.316,753.543z"/>
<path fill="#9F8946" d="M793.146,754.554l-0.401,0.342c-0.973,0.81-3.634,2.95-6.941,5.076c-3.293,2.134-7.292,4.207-10.599,4.987
	l-0.008,0.007c-2.631,0.647-7.47,1.116-12.442,1.354c-4.994,0.252-10.228,0.312-14.07,0.312c-3.522,0-5.856-0.052-5.864-0.052
	l-0.163,7.61c0.022,0,2.431,0.053,6.027,0.053c3.925,0,9.254-0.06,14.442-0.319c5.217-0.268,10.204-0.685,13.869-1.569l-0.008,0.008
	c5.396-1.322,10.51-4.34,14.464-7.001c3.925-2.661,6.615-5.002,6.689-5.068L793.146,754.554z"/>
<path fill="#9F8946" d="M733.195,618.566c-0.007,0.03-3.642,14.263-7.573,28.816c-1.97,7.269-4.015,14.612-5.694,20.246
	c-0.847,2.817-1.598,5.203-2.192,6.897c-0.297,0.848-0.55,1.517-0.728,1.933l-0.172,0.364l1.918,1.048l-1.538-1.523l-0.38,0.476
	l1.918,1.048l-1.538-1.523l0.021-0.023c-1.292,1.354-1.955,2.714-2.824,4.416c-2.415,4.973-4.854,12.167-4.891,12.233l3.604,1.234
	l-3.574-1.301c0,0-4.683,12.896-9.552,26.438c-2.431,6.771-4.905,13.713-6.859,19.287c-1.978,5.627-3.383,9.699-3.828,11.335
	l7.344,1.991c0.26-0.974,1.724-5.299,3.664-10.799c2.921-8.325,7.023-19.749,10.383-29.077c3.367-9.335,5.991-16.56,5.998-16.574
	l0.016-0.037l0.007-0.029c0.008-0.008,0.261-0.766,0.699-1.97c0.661-1.813,1.701-4.602,2.771-7.076
	c0.535-1.241,1.078-2.4,1.554-3.285l0.617-1.056l0.193-0.282l0.045-0.053l-0.224-0.2l0.209,0.216l0.015-0.016l-0.224-0.2
	l0.209,0.216l0.029-0.029l-0.007,0.007l0.898-1.241c0.647-1.219,1.145-2.653,1.858-4.75c4.742-14.285,15.185-55.217,15.199-55.269
	L733.195,618.566z"/>
<path fill="#9F8946" d="M782.89,486.336c-0.007,0.019-3.724,10.77-7.447,22.555c-1.865,5.9-3.731,12.048-5.144,17.28
	c-0.713,2.623-1.308,5.01-1.731,7.053c-0.424,2.075-0.706,3.717-0.721,5.263h0.156l-0.156-0.015v0.015h0.156l-0.156-0.015
	c0,0.305-0.527,2.074-1.486,4.259c-3.367,7.879-11.544,22.64-18.894,37.386c-3.68,7.396-7.165,14.821-9.797,21.548
	c-2.616,6.756-4.438,12.702-4.594,17.749l7.611,0.193c0.045-3.813,2.111-10.651,5.345-18.314
	c4.815-11.572,12.062-25.36,18.12-36.999c3.033-5.82,5.76-11.112,7.774-15.4c1.011-2.155,1.836-4.051,2.445-5.708
	c0.595-1.695,1.048-2.988,1.085-4.698c-0.015-0.445,0.171-1.896,0.559-3.701c1.345-6.444,4.883-18.062,8.057-27.909
	c3.181-9.871,6.005-18.035,6.013-18.054l-7.195-2.483V486.336z"/>
<path fill="#9F8946" d="M663.485,770.272c0.022,0.008,9.9,3.367,20.38,6.965c5.24,1.807,10.629,3.665,14.991,5.195
	c4.342,1.517,7.76,2.743,8.741,3.137l0.015,0.008c1.568,0.624,4.861,1.604,9.425,2.958c6.779,1.999,15.957,4.63,23.65,6.941
	c3.843,1.146,7.321,2.223,9.893,3.077c1.278,0.424,2.342,0.796,3.078,1.078l0.787,0.334l0.097,0.045l1.063-1.888l-1.354,1.688
	l0.29,0.2l1.063-1.888l-1.354,1.688l4.772-5.932c-0.788-0.594-1.175-0.714-1.739-0.981c-1.97-0.847-5.381-1.947-9.782-3.308
	c-6.556-2.021-15.08-4.488-22.379-6.614c-3.643-1.063-6.987-2.044-9.603-2.832c-2.588-0.78-4.571-1.419-5.085-1.628l-0.044-0.022
	l0.06,0.022c-1.375-0.55-4.675-1.724-9.083-3.27c-13.156-4.602-35.424-12.176-35.432-12.183L663.485,770.272z"/>
<path fill="#0053A1" d="M438.445,861.895c0,0,27.132,0,57.739,1.13c30.533,1.13,70.691,4.979,70.691,4.979
	s1.108,35.134,3.807,48.097c2.683,13.008,30.956,23.323,52.748,22.922c21.793-0.371,43.964,2.312,78.325,8.429
	c34.398,6.11,68.781,34.814,68.781,34.814l-25.984-73.404l87.08-9.187c0,0-19.414-14.137-47.346-27.062
	c-27.887-13.008-64.552-19.147-87.481-20.292c-22.951-1.145-64.218,2.676-64.218,2.676s-0.356-25.583-1.13-35.914
	c-0.787-10.331-2.289-44.358-2.289-44.358s-30.221-9.543-78.741-15.638c-48.505-6.132-113.871-6.511-113.871-6.511h-0.387
	c0,0-65.347,0.379-113.875,6.511c-48.546,6.095-78.722,15.638-78.722,15.638s-1.531,34.027-2.289,44.358
	c-0.77,10.331-1.152,35.914-1.152,35.914s-41.281-3.82-64.195-2.676c-22.918,1.145-59.624,7.284-87.511,20.292
	c-27.902,12.925-47.387,27.062-47.387,27.062l87.122,9.187l-25.984,73.404c0,0,34.394-28.704,68.789-34.814
	c34.394-6.117,56.573-8.8,78.339-8.429c21.77,0.401,50.059-9.914,52.738-22.922c2.672-12.963,3.828-48.097,3.828-48.097
	s40.095-3.85,70.676-4.979c30.596-1.13,57.722-1.13,57.722-1.13H438.445z"/>
<path fill="#9F8946" d="M438.445,861.895v5.708c0.018,0,6.737,0,17.313,0.142c10.577,0.142,24.974,0.424,40.218,0.98
	c15.118,0.565,32.741,1.807,46.551,2.906c13.81,1.101,23.777,2.052,23.807,2.052l0.542-5.679l-5.708,0.179
	c0.008,0.03,0.283,8.853,0.9,19.347c0.639,10.54,1.546,22.521,3.024,29.731c1.062,4.994,4.191,8.926,8.034,12.174
	c5.82,4.869,13.684,8.525,22.306,11.172c8.621,2.615,17.986,4.133,26.758,4.133l1.337-0.008c1.294-0.022,2.58-0.038,3.872-0.038
	c20.024,0,41.185,2.646,73.353,8.377c16.024,2.817,32.764,11.201,45.302,18.938c6.273,3.864,11.521,7.552,15.178,10.264
	c1.828,1.354,3.256,2.461,4.222,3.227l1.085,0.869l0.342,0.282l15.988,13.35l-30.519-86.219l94.64-9.988l-11.996-8.734
	c-0.201-0.142-19.86-14.456-48.306-27.626l0.016,0.007c-29.002-13.475-66.002-19.606-89.614-20.818
	c-3.115-0.156-6.505-0.224-10.057-0.224c-23.651,0.008-54.883,2.914-54.973,2.914l0.528,5.686l5.709-0.082
	c-0.008-0.066-0.35-25.53-1.145-36.256c-0.388-5.018-0.959-16.137-1.436-25.902c-0.468-9.789-0.847-18.262-0.847-18.284
	l-0.171-3.991l-3.813-1.197c-0.253-0.082-30.785-9.707-79.744-15.86c-49.048-6.191-114.436-6.548-114.551-6.556h-0.42h-0.052h0.018
	c-0.115,0.008-65.488,0.364-114.559,6.556c-48.98,6.153-79.473,15.778-79.726,15.86l-3.802,1.197l-0.179,3.983
	c-0.003,0.022-0.382,8.503-0.862,18.285c-0.476,9.772-1.048,20.892-1.42,25.917c-0.791,10.711-1.163,36.175-1.167,36.241
	l5.708,0.089l0.528-5.686c-0.089,0-31.332-2.906-54.964-2.914c-3.549,0-6.931,0.067-10.045,0.224
	c-23.599,1.212-60.643,7.344-89.637,20.818l0.011-0.007c-28.415,13.17-48.145,27.484-48.338,27.618l-12.041,8.742l94.717,9.988
	l-30.518,86.211l15.988-13.342l0.338-0.282c1.806-1.464,10.655-8.51,22.896-15.816c12.223-7.313,27.879-14.835,42.897-17.481
	c32.202-5.73,53.37-8.377,73.375-8.377c1.293,0,2.579,0.016,3.865,0.038l1.337,0.008c11.684-0.016,24.438-2.677,35.071-7.121
	c5.318-2.244,10.104-4.928,13.984-8.184c3.839-3.248,6.972-7.18,8.035-12.182c1.468-7.194,2.382-19.176,3.025-29.724
	c0.628-10.486,0.918-19.302,0.918-19.34l-5.705-0.186l0.546,5.679c0.007,0,2.482-0.238,6.704-0.609
	c12.658-1.137,40.905-3.508,63.638-4.349c15.236-0.557,29.626-0.839,40.199-0.98c10.573-0.142,17.292-0.142,17.311-0.142h4.178
	V861.895v-5.708h-4.178c-0.041,0-27.214,0-57.934,1.13c-30.845,1.145-70.955,5.002-71.011,5.009l-4.995,0.476l-0.164,5.018
	c0,0.008-0.07,2.163-0.219,5.634c-0.227,5.211-0.625,13.334-1.211,21.317c-0.58,7.953-1.386,15.884-2.282,20.179
	c-0.253,1.383-1.516,3.509-4.207,5.754c-3.973,3.373-10.703,6.696-18.273,8.978c-7.574,2.305-16.002,3.649-23.431,3.643
	l-1.133-0.008c-1.36-0.021-2.713-0.037-4.069-0.037c-21.064,0.008-42.957,2.787-75.374,8.556
	c-18.373,3.292-36.03,12.315-49.285,20.454c-13.238,8.153-22.016,15.475-22.161,15.594l3.657,4.385l5.381,1.902l28.4-80.228
	l-94.32-9.944l-0.598,5.679l3.353,4.623l0.817-0.579c3.921-2.758,21.651-14.829,45.618-25.926l0.011-0.007
	c26.78-12.539,63.147-18.687,85.386-19.764c2.858-0.142,6.069-0.209,9.473-0.209c11.375,0,24.903,0.715,35.539,1.436
	c5.318,0.356,9.918,0.714,13.189,0.988c3.267,0.268,5.177,0.446,5.18,0.446l6.144,0.564l0.093-6.169
	c0-0.008,0.093-6.369,0.286-14.025c0.19-7.633,0.479-16.619,0.852-21.547c0.773-10.547,2.296-44.484,2.296-44.529l-5.701-0.253
	l1.721,5.441c0.004,0,0.409-0.127,1.293-0.387c6.202-1.843,34.327-9.744,76.418-15.029c23.978-3.032,52.337-4.659,74.646-5.515
	c11.156-0.431,20.804-0.669,27.661-0.795c6.853-0.134,10.881-0.156,10.892-0.156h0.354h-0.052h0.019
	c0.011,0,4.039,0.022,10.896,0.156c20.551,0.387,66.336,1.762,102.295,6.31c24.044,3.019,43.54,6.891,56.993,10.005
	c6.727,1.554,11.943,2.914,15.467,3.888c1.754,0.483,3.092,0.869,3.977,1.137c0.893,0.26,1.301,0.387,1.301,0.387l1.717-5.441
	l-5.7,0.253c0,0.045,1.494,33.968,2.296,44.536c0.372,4.913,0.662,13.899,0.84,21.54c0.186,7.656,0.275,14.011,0.275,14.025
	l0.089,6.169l6.147-0.564c0,0,1.917-0.179,5.181-0.446c9.788-0.811,31.64-2.424,48.735-2.424c3.411,0,6.622,0.067,9.491,0.209
	c22.246,1.077,58.568,7.225,85.349,19.764l0.014,0.007c13.707,6.341,25.361,13,33.552,18.055c4.095,2.526,7.328,4.659,9.528,6.146
	c1.093,0.743,1.933,1.324,2.498,1.718l0.81,0.579l3.359-4.615l-0.602-5.679l-94.275,9.944l28.4,80.228l5.381-1.902l3.657-4.385
	c-0.142-0.112-8.92-7.44-22.156-15.594c-13.254-8.139-30.905-17.162-49.286-20.454c-32.385-5.769-54.273-8.548-75.353-8.556
	c-1.359,0-2.712,0.016-4.064,0.037l-1.145,0.008c-9.916,0.022-21.6-2.4-30.66-6.229c-4.534-1.903-8.406-4.155-11.053-6.392
	c-2.69-2.245-3.953-4.371-4.206-5.754c-1.219-5.76-2.215-17.83-2.803-28.095c-0.305-5.158-0.527-9.922-0.677-13.394
	c-0.141-3.471-0.208-5.626-0.208-5.634l-0.163-5.025l-5.002-0.476c-0.052-0.007-40.226-3.864-71.025-5.009
	c-30.727-1.13-57.907-1.13-57.948-1.13V861.895z"/>
<path fill="#9F8946" d="M305.49,862.312c-0.015,0-7.979,0.52-17.317,1.271c-9.376,0.751-19.979,1.688-25.814,2.624l0.026-0.008
	h0.008c-5.14,0.818-11.494,1.925-17.203,4.615c-2.847,1.368-5.608,3.166-7.804,5.843c-2.2,2.646-3.631,6.287-3.598,10.175
	c-0.019,3.738,0.94,7.307,2.992,10.115c1.52,2.104,3.538,3.665,5.656,4.743c6.399,3.128,13.624,3.092,21.306,3.166
	c2.348,0,4.731-0.022,7.105-0.022c8.172,0,16.456,0.111,22.684,0.223c6.232,0.111,10.391,0.224,10.402,0.224l0.304-11.417
	c-0.03,0-16.846-0.445-33.391-0.445c-2.453,0-4.838,0.021-7.105,0.021c-6.552,0.045-12.215-0.327-15.136-1.493
	c-1.487-0.565-2.167-1.138-2.583-1.702c-0.397-0.573-0.799-1.412-0.817-3.412c0.034-1.375,0.331-2.044,1.029-2.958
	c1.03-1.338,3.568-2.877,6.942-3.977c3.345-1.115,7.343-1.858,10.963-2.416l0.033-0.007c4.991-0.804,15.687-1.784,24.907-2.512
	c9.253-0.744,17.143-1.257,17.162-1.264L305.49,862.312z"/>
<path fill="#9F8946" d="M234.428,854.774c0,0.045-0.721,18.678-0.725,28.482c0,1.345,0.015,2.526,0.048,3.529l11.409-0.386
	c-0.026-0.795-0.041-1.881-0.041-3.144c0-4.661,0.179-11.707,0.357-17.55c0.182-5.841,0.36-10.479,0.36-10.486L234.428,854.774z"/>
<path fill="#9F8946" d="M566.497,873.698c0.022,0.007,7.908,0.513,17.162,1.24c9.224,0.721,19.927,1.68,24.937,2.482h0.015
	c4.816,0.729,10.339,1.859,14.018,3.65c1.852,0.877,3.159,1.865,3.865,2.749c0.699,0.915,0.996,1.592,1.026,2.966
	c-0.016,1.993-0.417,2.832-0.811,3.405c-0.32,0.43-0.751,0.831-1.591,1.263c-2.452,1.412-8.636,1.992-15.973,1.917
	c-2.312,0-4.749-0.029-7.254-0.029c-16.537,0-33.41,0.513-33.439,0.513l0.342,11.417c0.015,0,4.185-0.134,10.421-0.26
	c6.235-0.127,14.522-0.254,22.677-0.254c2.423,0,4.86,0.03,7.254,0.03c6.801-0.044,13.223-0.097,19.05-2.229
	c2.892-1.078,5.745-2.876,7.774-5.693c2.037-2.803,2.98-6.354,2.966-10.079c0.03-3.887-1.39-7.521-3.59-10.168
	c-3.314-4.005-7.768-6.094-12.16-7.596c-4.422-1.472-8.971-2.281-12.821-2.884h0.015c-5.842-0.914-16.448-1.844-25.82-2.579
	c-9.343-0.735-17.303-1.248-17.317-1.248L566.497,873.698z"/>
<path fill="#9F8946" d="M626.887,855.228c0,0.008,0.186,4.615,0.372,10.429c0.179,5.805,0.364,12.828,0.364,17.496
	c0,1.285-0.016,2.394-0.045,3.203l11.416,0.401c0.03-1.018,0.046-2.229,0.046-3.604c0-9.834-0.751-28.341-0.751-28.385
	L626.887,855.228z"/>
<polygon fill="#9F8946" points="264.444,786.156 283.784,784.566 289.31,850.984 269.978,852.574 "/>
<polygon fill="#9F8946" points="299.667,782.47 358.392,778.204 359.582,794.585 339.899,796.012 343.561,846.093 324.191,847.505 
	320.545,797.409 300.864,798.866 "/>
<path fill="#9F8946" d="M409.874,831.927l-22.094,0.579l-2.724,11.075l-19.863,0.527l21.818-67.272l21.257-0.565l25.345,66.002
	l-20.291,0.551L409.874,831.927z M405.385,817.626l-7.503-23.77l-6.236,24.127L405.385,817.626z"/>
<polygon fill="#9F8946" points="448.379,775.35 467.763,775.854 466.454,826.099 496.72,826.901 496.289,843.283 446.62,841.99 "/>
<polygon fill="#9F8946" points="515.019,778.1 534.389,779.185 530.725,845.736 511.362,844.651 "/>
<path fill="#9F8946" d="M590.208,839.463l-22.002-2.215l-4.116,10.644l-19.741-1.992l30.161-63.965l21.168,2.141l16.753,68.678
	l-20.172-2.021L590.208,839.463z M587.562,824.732l-4.43-24.559l-9.231,23.19L587.562,824.732z"/>
<path fill="#00795D" d="M169.99,182.976v268.127c0,38.308,9.559,130.591,108.862,196.786c25.39,16.916,46.989,29.225,64.79,38.382
	V182.976H169.99z"/>
<path fill="#DD052B" d="M529.021,182.976v503.295c17.81-9.157,39.394-21.466,64.798-38.382
	c99.3-66.195,108.872-158.479,108.872-196.786V182.976H529.021z"/>
<path fill="#FFFFFF" d="M343.646,182.976v503.279c25.766,13.216,43.529,19.815,52.731,23.77c16.842,7.225,39.894,15.46,39.894,15.46
	h0.123c0,0,23.06-8.235,39.887-15.46c9.217-3.954,26.98-10.554,52.741-23.77V182.976H343.646z"/>
<rect x="169.987" y="11.417" fill="#0053A1" width="532.691" height="171.551"/>
<polygon fill="#9F8946" points="230.737,47.211 310.797,47.211 310.797,69.792 263.121,69.792 263.121,88.035 303.956,88.035 
	303.956,109.24 263.121,109.24 263.121,151.907 230.737,151.907 "/>
<rect x="336.484" y="127.041" fill="#9F8946" width="26.471" height="24.866"/>
<rect x="392.522" y="47.211" fill="#9F8946" width="32.395" height="104.696"/>
<rect x="456.54" y="127.041" fill="#9F8946" width="26.46" height="24.866"/>
<path fill="#9F8946" d="M511.675,151.911V47.211h53.871c9.99,0,17.646,0.862,22.937,2.575c5.263,1.717,9.515,4.883,12.74,9.544
	c3.24,4.649,4.86,10.297,4.86,16.972c0,5.816-1.248,10.836-3.716,15.062c-2.498,4.214-5.901,7.633-10.271,10.234
	c-2.78,1.684-6.556,3.069-11.41,4.151c3.858,1.301,6.623,2.594,8.392,3.88c1.189,0.866,2.898,2.702,5.144,5.534
	s3.731,5.017,4.504,6.537l15.803,30.209h-36.509l-17.311-31.953c-2.179-4.132-4.141-6.819-5.85-8.053
	c-2.349-1.62-4.98-2.442-7.938-2.442h-2.869v42.448H511.675z M544.051,89.637h13.706c1.472,0,4.34-0.472,8.636-1.416
	c2.111-0.427,3.91-1.516,5.263-3.274c1.353-1.765,2.066-3.78,2.066-6.058c0-3.363-1.1-5.957-3.255-7.763
	c-2.156-1.803-6.199-2.702-12.146-2.702h-14.271V89.637z"/>
<rect x="633.405" y="127.041" fill="#9F8946" width="26.46" height="24.866"/>
<polyline fill="#9F8946" points="169.983,194.384 702.678,194.384 702.678,171.551 169.983,171.551 "/>
<path fill="#9F8946" d="M436.408,725.478l3.843,10.747c0.111-0.037,23.186-8.272,40.541-15.713
	c7.321-3.151,21.733-8.555,41.771-18.269c20.098-9.729,46.074-23.866,77.581-44.863c51.59-34.339,80.391-76.051,95.903-114.023
	c15.556-37.981,18.038-72.156,18.046-92.261V0H437.207h-1.735H158.578v451.095c0.003,20.105,2.494,54.28,18.046,92.261
	c15.512,37.973,44.317,79.685,95.896,114.023c31.503,20.997,57.48,35.134,77.585,44.863c20.046,9.714,34.461,15.117,41.768,18.269
	c17.381,7.44,40.463,15.676,40.571,15.713l1.866,0.669h2.1h1.98l1.862-0.669L436.408,725.478v-11.417h-0.123v11.417l3.839-10.748
	c-0.005-0.008-1.395-0.505-3.791-1.375c-7.173-2.617-23.223-8.585-35.461-13.832c-8.239-3.531-21.521-8.488-40.816-17.823
	c-19.24-9.32-44.247-22.915-74.876-43.317c-47.71-31.849-73.337-69.376-87.429-103.678c-14.052-34.294-16.345-65.417-16.341-83.609
	V22.833h254.061h1.735h254.054v428.262c0.008,18.191-2.289,49.315-16.336,83.609c-14.093,34.302-39.72,71.829-87.438,103.678
	c-30.638,20.402-55.642,33.997-74.876,43.317c-19.295,9.335-32.569,14.3-40.812,17.823c-8.146,3.493-18.01,7.32-25.784,10.25
	c-3.891,1.464-7.266,2.705-9.658,3.582c-2.394,0.87-3.787,1.367-3.791,1.375L436.408,725.478v-11.417V725.478z"/>
</svg>
